<svg xmlns="http://www.w3.org/2000/svg" xmlns:xlink="http://www.w3.org/1999/xlink" width="500" zoomAndPan="magnify" viewBox="0 0 375 374.999991" height="500" preserveAspectRatio="xMidYMid meet" version="1.0"><defs><g/><clipPath id="250a4c1559"><path d="M 37.5 200 L 108 200 L 108 237 L 37.5 237 Z M 37.5 200 " clip-rule="nonzero"/></clipPath><clipPath id="0cb104f59d"><path d="M 44 147 L 112.5 147 L 112.5 196 L 44 196 Z M 44 147 " clip-rule="nonzero"/></clipPath></defs><g clip-path="url(#250a4c1559)"><path fill="#004aad" d="M 107.136719 200.414062 L 107.136719 202.574219 C 107.136719 221.207031 92.03125 236.3125 73.398438 236.3125 C 53.570312 236.3125 37.5 220.242188 37.5 200.417969 L 107.136719 200.417969 Z M 107.136719 200.414062 " fill-opacity="1" fill-rule="nonzero"/></g><g clip-path="url(#0cb104f59d)"><path fill="#ff3131" d="M 112.21875 171.21875 L 111.480469 173.25 C 105.117188 190.761719 85.761719 199.796875 68.25 193.433594 C 49.617188 186.664062 40 166.070312 46.773438 147.433594 Z M 112.21875 171.21875 " fill-opacity="1" fill-rule="nonzero"/></g><path fill="#ffbd59" d="M 109.984375 142.554688 C 109.984375 143.484375 109.894531 144.40625 109.710938 145.316406 C 109.53125 146.226562 109.261719 147.113281 108.90625 147.96875 C 108.550781 148.828125 108.117188 149.644531 107.597656 150.414062 C 107.082031 151.1875 106.496094 151.902344 105.839844 152.558594 C 105.183594 153.214844 104.46875 153.800781 103.695312 154.320312 C 102.925781 154.835938 102.109375 155.269531 101.25 155.625 C 100.390625 155.980469 99.507812 156.25 98.597656 156.429688 C 97.6875 156.613281 96.765625 156.703125 95.835938 156.703125 C 94.90625 156.703125 93.988281 156.613281 93.078125 156.429688 C 92.167969 156.25 91.28125 155.980469 90.421875 155.625 C 89.566406 155.269531 88.75 154.835938 87.976562 154.320312 C 87.207031 153.800781 86.492188 153.214844 85.832031 152.558594 C 85.175781 151.902344 84.589844 151.1875 84.074219 150.414062 C 83.558594 149.644531 83.121094 148.828125 82.765625 147.96875 C 82.410156 147.113281 82.144531 146.226562 81.960938 145.316406 C 81.78125 144.40625 81.691406 143.484375 81.691406 142.554688 C 81.691406 141.628906 81.78125 140.707031 81.960938 139.796875 C 82.144531 138.886719 82.410156 138 82.765625 137.144531 C 83.121094 136.285156 83.558594 135.46875 84.074219 134.695312 C 84.589844 133.925781 85.175781 133.210938 85.832031 132.554688 C 86.492188 131.898438 87.207031 131.308594 87.976562 130.792969 C 88.75 130.277344 89.566406 129.84375 90.421875 129.488281 C 91.28125 129.132812 92.167969 128.863281 93.078125 128.683594 C 93.988281 128.5 94.90625 128.410156 95.835938 128.410156 C 96.765625 128.410156 97.6875 128.5 98.597656 128.683594 C 99.507812 128.863281 100.390625 129.132812 101.25 129.488281 C 102.109375 129.84375 102.925781 130.277344 103.695312 130.792969 C 104.46875 131.308594 105.183594 131.898438 105.839844 132.554688 C 106.496094 133.210938 107.082031 133.925781 107.597656 134.695312 C 108.117188 135.46875 108.550781 136.285156 108.90625 137.144531 C 109.261719 138 109.53125 138.886719 109.710938 139.796875 C 109.894531 140.707031 109.984375 141.628906 109.984375 142.554688 Z M 109.984375 142.554688 " fill-opacity="1" fill-rule="nonzero"/><g fill="#000000" fill-opacity="1"><g transform="translate(119.589885, 160.602417)"><g><path d="M 2.09375 -28.265625 L 11.46875 -28.265625 L 17 -12.234375 L 17.125 -12.234375 L 22.65625 -28.265625 L 32.015625 -28.265625 L 32.015625 0 L 25.84375 0 L 25.84375 -19.375 L 25.671875 -19.375 L 19.0625 0 L 15.0625 0 L 8.4375 -19.375 L 8.28125 -19.375 L 8.28125 0 L 2.09375 0 Z M 2.09375 -28.265625 "/></g></g></g><g fill="#000000" fill-opacity="1"><g transform="translate(153.711241, 160.602417)"><g><path d="M 12.84375 -28.265625 C 15.070312 -28.265625 16.957031 -27.804688 18.5 -26.890625 C 20.050781 -25.972656 21.203125 -24.757812 21.953125 -23.25 C 22.710938 -21.75 23.09375 -20.125 23.09375 -18.375 C 23.09375 -16.644531 22.722656 -15.046875 21.984375 -13.578125 C 21.242188 -12.117188 20.097656 -10.941406 18.546875 -10.046875 C 17.003906 -9.160156 15.101562 -8.71875 12.84375 -8.71875 L 8.28125 -8.71875 L 8.28125 0 L 2.09375 0 L 2.09375 -28.265625 Z M 11.828125 -13.890625 C 13.285156 -13.890625 14.507812 -14.234375 15.5 -14.921875 C 16.5 -15.609375 17 -16.757812 17 -18.375 C 17 -19.988281 16.503906 -21.117188 15.515625 -21.765625 C 14.535156 -22.410156 13.304688 -22.734375 11.828125 -22.734375 L 8.28125 -22.734375 L 8.28125 -13.890625 Z M 11.828125 -13.890625 "/></g></g></g><g fill="#000000" fill-opacity="1"><g transform="translate(177.374102, 160.602417)"><g><path d="M 2.09375 -28.296875 L 13.25 -28.296875 C 15.75 -28.296875 17.953125 -27.738281 19.859375 -26.625 C 21.773438 -25.507812 23.265625 -23.894531 24.328125 -21.78125 C 25.390625 -19.664062 25.921875 -17.144531 25.921875 -14.21875 C 25.921875 -11.226562 25.378906 -8.664062 24.296875 -6.53125 C 23.222656 -4.40625 21.722656 -2.789062 19.796875 -1.6875 C 17.878906 -0.59375 15.664062 -0.046875 13.15625 -0.046875 L 2.09375 -0.046875 Z M 11.984375 -5.6875 C 14.191406 -5.6875 15.941406 -6.316406 17.234375 -7.578125 C 18.523438 -8.847656 19.171875 -11.0625 19.171875 -14.21875 C 19.171875 -17.363281 18.53125 -19.566406 17.25 -20.828125 C 15.976562 -22.097656 14.222656 -22.734375 11.984375 -22.734375 L 8.203125 -22.734375 L 8.203125 -5.6875 Z M 11.984375 -5.6875 "/></g></g></g><g fill="#000000" fill-opacity="1"><g transform="translate(204.711562, 160.602417)"><g><path d="M 2.375 -28.265625 L 8.71875 -28.265625 L 8.71875 0 L 2.375 0 Z M 2.375 -28.265625 "/></g></g></g><g fill="#000000" fill-opacity="1"><g transform="translate(215.856521, 160.602417)"><g><path d="M 13.890625 0.359375 C 11.253906 0.359375 9.015625 -0.320312 7.171875 -1.6875 C 5.328125 -3.0625 3.945312 -4.851562 3.03125 -7.0625 C 2.113281 -9.269531 1.65625 -11.625 1.65625 -14.125 C 1.65625 -16.707031 2.128906 -19.113281 3.078125 -21.34375 C 4.035156 -23.582031 5.484375 -25.390625 7.421875 -26.765625 C 9.367188 -28.140625 11.738281 -28.828125 14.53125 -28.828125 C 17.738281 -28.828125 20.367188 -27.929688 22.421875 -26.140625 C 24.484375 -24.347656 25.929688 -22.015625 26.765625 -19.140625 L 20.140625 -19.140625 C 19.796875 -20.398438 19.148438 -21.40625 18.203125 -22.15625 C 17.265625 -22.914062 16.054688 -23.296875 14.578125 -23.296875 C 12.453125 -23.296875 10.820312 -22.445312 9.6875 -20.75 C 8.5625 -19.050781 8 -16.789062 8 -13.96875 C 8 -11.007812 8.601562 -8.710938 9.8125 -7.078125 C 11.019531 -5.453125 12.710938 -4.640625 14.890625 -4.640625 C 16.773438 -4.640625 18.207031 -5.21875 19.1875 -6.375 C 20.175781 -7.53125 20.6875 -8.890625 20.71875 -10.453125 L 20.71875 -10.984375 L 15.421875 -10.984375 L 15.421875 -15.46875 L 26.890625 -15.46875 L 26.890625 0 L 22.25 0 L 22.25 -4 L 21.921875 -4 C 20.335938 -1.09375 17.660156 0.359375 13.890625 0.359375 Z M 13.890625 0.359375 "/></g></g></g><g fill="#000000" fill-opacity="1"><g transform="translate(244.809198, 160.602417)"><g><path d="M 2.375 -28.265625 L 8.71875 -28.265625 L 8.71875 0 L 2.375 0 Z M 2.375 -28.265625 "/></g></g></g><g fill="#000000" fill-opacity="1"><g transform="translate(255.954157, 160.602417)"><g><path d="M 22.53125 -22.765625 L 15.09375 -22.765625 L 15.09375 0 L 8.84375 0 L 8.84375 -22.765625 L 1.40625 -22.765625 L 1.40625 -28.265625 L 22.53125 -28.265625 Z M 22.53125 -22.765625 "/></g></g></g><g fill="#000000" fill-opacity="1"><g transform="translate(279.940059, 160.602417)"><g><path d="M 18.171875 -6.546875 L 9.125 -6.546875 L 7.109375 0 L 0.734375 0 L 10.78125 -28.265625 L 16.640625 -28.265625 L 26.609375 0 L 20.234375 0 Z M 16.640625 -11.34375 L 13.734375 -20.46875 L 13.484375 -20.46875 L 10.65625 -11.34375 Z M 16.640625 -11.34375 "/></g></g></g><g fill="#000000" fill-opacity="1"><g transform="translate(307.115999, 160.602417)"><g><path d="M 20.3125 -5.484375 L 20.3125 0 L 2.09375 0 L 2.09375 -28.265625 L 8.4375 -28.265625 L 8.390625 -5.484375 Z M 20.3125 -5.484375 "/></g></g></g><g fill="#000000" fill-opacity="1"><g transform="translate(119.589885, 200.38669)"><g><path d="M 11.6875 0.3125 C 9.625 0.3125 7.859375 -0.113281 6.390625 -0.96875 C 4.929688 -1.820312 3.832031 -2.921875 3.09375 -4.265625 C 2.351562 -5.617188 1.984375 -7.035156 1.984375 -8.515625 L 1.984375 -8.703125 L 5.609375 -8.703125 L 5.609375 -8.515625 C 5.609375 -7.628906 5.816406 -6.738281 6.234375 -5.84375 C 6.660156 -4.957031 7.332031 -4.210938 8.25 -3.609375 C 9.164062 -3.015625 10.335938 -2.71875 11.765625 -2.71875 C 13.441406 -2.71875 14.828125 -3.148438 15.921875 -4.015625 C 17.023438 -4.878906 17.578125 -6.050781 17.578125 -7.53125 C 17.578125 -8.75 17.175781 -9.71875 16.375 -10.4375 C 15.570312 -11.164062 14.546875 -11.660156 13.296875 -11.921875 L 9.390625 -12.640625 C 4.910156 -13.640625 2.671875 -16 2.671875 -19.71875 C 2.671875 -21.238281 3.039062 -22.570312 3.78125 -23.71875 C 4.519531 -24.863281 5.546875 -25.75 6.859375 -26.375 C 8.171875 -27 9.691406 -27.3125 11.421875 -27.3125 C 13.378906 -27.3125 15.054688 -26.914062 16.453125 -26.125 C 17.859375 -25.34375 18.914062 -24.320312 19.625 -23.0625 C 20.34375 -21.800781 20.703125 -20.492188 20.703125 -19.140625 L 20.703125 -18.984375 L 17.078125 -18.984375 L 17.078125 -19.109375 C 17.078125 -19.867188 16.890625 -20.648438 16.515625 -21.453125 C 16.148438 -22.253906 15.539062 -22.945312 14.6875 -23.53125 C 13.832031 -24.113281 12.707031 -24.40625 11.3125 -24.40625 C 9.707031 -24.40625 8.425781 -23.957031 7.46875 -23.0625 C 6.507812 -22.175781 6.03125 -21.070312 6.03125 -19.75 C 6.03125 -18.625 6.398438 -17.707031 7.140625 -17 C 7.878906 -16.289062 8.882812 -15.804688 10.15625 -15.546875 L 13.671875 -14.859375 C 18.585938 -13.867188 21.046875 -11.460938 21.046875 -7.640625 C 21.046875 -6.085938 20.65625 -4.710938 19.875 -3.515625 C 19.101562 -2.316406 18.003906 -1.378906 16.578125 -0.703125 C 15.148438 -0.0234375 13.519531 0.3125 11.6875 0.3125 Z M 11.6875 0.3125 "/></g></g></g><g fill="#000000" fill-opacity="1"><g transform="translate(142.467502, 200.38669)"><g><path d="M 14.0625 0.265625 C 11.507812 0.265625 9.320312 -0.316406 7.5 -1.484375 C 5.6875 -2.660156 4.304688 -4.289062 3.359375 -6.375 C 2.421875 -8.46875 1.953125 -10.835938 1.953125 -13.484375 C 1.953125 -16.128906 2.425781 -18.503906 3.375 -20.609375 C 4.332031 -22.710938 5.722656 -24.351562 7.546875 -25.53125 C 9.367188 -26.71875 11.539062 -27.3125 14.0625 -27.3125 C 16.550781 -27.3125 18.703125 -26.71875 20.515625 -25.53125 C 22.328125 -24.351562 23.703125 -22.71875 24.640625 -20.625 C 25.578125 -18.539062 26.046875 -16.148438 26.046875 -13.453125 C 26.046875 -10.773438 25.578125 -8.40625 24.640625 -6.34375 C 23.703125 -4.28125 22.328125 -2.660156 20.515625 -1.484375 C 18.703125 -0.316406 16.550781 0.265625 14.0625 0.265625 Z M 14.015625 -2.78125 C 15.773438 -2.78125 17.300781 -3.234375 18.59375 -4.140625 C 19.894531 -5.046875 20.890625 -6.3125 21.578125 -7.9375 C 22.265625 -9.570312 22.609375 -11.4375 22.609375 -13.53125 C 22.609375 -15.613281 22.265625 -17.46875 21.578125 -19.09375 C 20.890625 -20.726562 19.894531 -22.003906 18.59375 -22.921875 C 17.300781 -23.835938 15.773438 -24.296875 14.015625 -24.296875 C 12.265625 -24.296875 10.738281 -23.832031 9.4375 -22.90625 C 8.132812 -21.976562 7.140625 -20.695312 6.453125 -19.0625 C 5.765625 -17.4375 5.421875 -15.59375 5.421875 -13.53125 C 5.421875 -11.4375 5.765625 -9.582031 6.453125 -7.96875 C 7.140625 -6.351562 8.132812 -5.082031 9.4375 -4.15625 C 10.738281 -3.238281 12.265625 -2.78125 14.015625 -2.78125 Z M 14.015625 -2.78125 "/></g></g></g><g fill="#000000" fill-opacity="1"><g transform="translate(170.539368, 200.38669)"><g><path d="M 18.640625 -2.984375 L 18.640625 0 L 2.859375 0 L 2.859375 -26.75 L 6.1875 -26.75 L 6.15625 -2.984375 Z M 18.640625 -2.984375 "/></g></g></g><g fill="#000000" fill-opacity="1"><g transform="translate(190.743473, 200.38669)"><g><path d="M 13.109375 0.34375 C 9.691406 0.34375 7.066406 -0.703125 5.234375 -2.796875 C 3.398438 -4.898438 2.484375 -7.890625 2.484375 -11.765625 L 2.484375 -26.75 L 5.734375 -26.75 L 5.734375 -11.875 C 5.734375 -9.632812 6.222656 -7.566406 7.203125 -5.671875 C 8.179688 -3.773438 10.148438 -2.828125 13.109375 -2.828125 C 16.003906 -2.828125 17.9375 -3.769531 18.90625 -5.65625 C 19.875 -7.539062 20.359375 -9.613281 20.359375 -11.875 L 20.359375 -26.75 L 23.609375 -26.75 L 23.609375 -11.765625 C 23.609375 -7.890625 22.695312 -4.898438 20.875 -2.796875 C 19.050781 -0.703125 16.460938 0.34375 13.109375 0.34375 Z M 13.109375 0.34375 "/></g></g></g><g fill="#000000" fill-opacity="1"><g transform="translate(216.867501, 200.38669)"><g><path d="M 20.75 -23.765625 L 12.875 -23.765625 L 12.875 0 L 9.59375 0 L 9.59375 -23.765625 L 1.71875 -23.765625 L 1.71875 -26.75 L 20.75 -26.75 Z M 20.75 -23.765625 "/></g></g></g><g fill="#000000" fill-opacity="1"><g transform="translate(239.363196, 200.38669)"><g><path d="M 2.984375 -26.75 L 6.296875 -26.75 L 6.296875 0 L 2.984375 0 Z M 2.984375 -26.75 "/></g></g></g><g fill="#000000" fill-opacity="1"><g transform="translate(248.644094, 200.38669)"><g><path d="M 14.0625 0.265625 C 11.507812 0.265625 9.320312 -0.316406 7.5 -1.484375 C 5.6875 -2.660156 4.304688 -4.289062 3.359375 -6.375 C 2.421875 -8.46875 1.953125 -10.835938 1.953125 -13.484375 C 1.953125 -16.128906 2.425781 -18.503906 3.375 -20.609375 C 4.332031 -22.710938 5.722656 -24.351562 7.546875 -25.53125 C 9.367188 -26.71875 11.539062 -27.3125 14.0625 -27.3125 C 16.550781 -27.3125 18.703125 -26.71875 20.515625 -25.53125 C 22.328125 -24.351562 23.703125 -22.71875 24.640625 -20.625 C 25.578125 -18.539062 26.046875 -16.148438 26.046875 -13.453125 C 26.046875 -10.773438 25.578125 -8.40625 24.640625 -6.34375 C 23.703125 -4.28125 22.328125 -2.660156 20.515625 -1.484375 C 18.703125 -0.316406 16.550781 0.265625 14.0625 0.265625 Z M 14.015625 -2.78125 C 15.773438 -2.78125 17.300781 -3.234375 18.59375 -4.140625 C 19.894531 -5.046875 20.890625 -6.3125 21.578125 -7.9375 C 22.265625 -9.570312 22.609375 -11.4375 22.609375 -13.53125 C 22.609375 -15.613281 22.265625 -17.46875 21.578125 -19.09375 C 20.890625 -20.726562 19.894531 -22.003906 18.59375 -22.921875 C 17.300781 -23.835938 15.773438 -24.296875 14.015625 -24.296875 C 12.265625 -24.296875 10.738281 -23.832031 9.4375 -22.90625 C 8.132812 -21.976562 7.140625 -20.695312 6.453125 -19.0625 C 5.765625 -17.4375 5.421875 -15.59375 5.421875 -13.53125 C 5.421875 -11.4375 5.765625 -9.582031 6.453125 -7.96875 C 7.140625 -6.351562 8.132812 -5.082031 9.4375 -4.15625 C 10.738281 -3.238281 12.265625 -2.78125 14.015625 -2.78125 Z M 14.015625 -2.78125 "/></g></g></g><g fill="#000000" fill-opacity="1"><g transform="translate(276.715959, 200.38669)"><g><path d="M 2.859375 -26.75 L 6.578125 -26.75 L 20.890625 -5.265625 L 21.046875 -5.265625 L 21.046875 -26.75 L 24.296875 -26.75 L 24.296875 0 L 20.546875 0 L 6.265625 -21.171875 L 6.109375 -21.171875 L 6.109375 0 L 2.859375 0 Z M 2.859375 -26.75 "/></g></g></g><g fill="#000000" fill-opacity="1"><g transform="translate(303.871202, 200.38669)"><g><path d="M 11.6875 0.3125 C 9.625 0.3125 7.859375 -0.113281 6.390625 -0.96875 C 4.929688 -1.820312 3.832031 -2.921875 3.09375 -4.265625 C 2.351562 -5.617188 1.984375 -7.035156 1.984375 -8.515625 L 1.984375 -8.703125 L 5.609375 -8.703125 L 5.609375 -8.515625 C 5.609375 -7.628906 5.816406 -6.738281 6.234375 -5.84375 C 6.660156 -4.957031 7.332031 -4.210938 8.25 -3.609375 C 9.164062 -3.015625 10.335938 -2.71875 11.765625 -2.71875 C 13.441406 -2.71875 14.828125 -3.148438 15.921875 -4.015625 C 17.023438 -4.878906 17.578125 -6.050781 17.578125 -7.53125 C 17.578125 -8.75 17.175781 -9.71875 16.375 -10.4375 C 15.570312 -11.164062 14.546875 -11.660156 13.296875 -11.921875 L 9.390625 -12.640625 C 4.910156 -13.640625 2.671875 -16 2.671875 -19.71875 C 2.671875 -21.238281 3.039062 -22.570312 3.78125 -23.71875 C 4.519531 -24.863281 5.546875 -25.75 6.859375 -26.375 C 8.171875 -27 9.691406 -27.3125 11.421875 -27.3125 C 13.378906 -27.3125 15.054688 -26.914062 16.453125 -26.125 C 17.859375 -25.34375 18.914062 -24.320312 19.625 -23.0625 C 20.34375 -21.800781 20.703125 -20.492188 20.703125 -19.140625 L 20.703125 -18.984375 L 17.078125 -18.984375 L 17.078125 -19.109375 C 17.078125 -19.867188 16.890625 -20.648438 16.515625 -21.453125 C 16.148438 -22.253906 15.539062 -22.945312 14.6875 -23.53125 C 13.832031 -24.113281 12.707031 -24.40625 11.3125 -24.40625 C 9.707031 -24.40625 8.425781 -23.957031 7.46875 -23.0625 C 6.507812 -22.175781 6.03125 -21.070312 6.03125 -19.75 C 6.03125 -18.625 6.398438 -17.707031 7.140625 -17 C 7.878906 -16.289062 8.882812 -15.804688 10.15625 -15.546875 L 13.671875 -14.859375 C 18.585938 -13.867188 21.046875 -11.460938 21.046875 -7.640625 C 21.046875 -6.085938 20.65625 -4.710938 19.875 -3.515625 C 19.101562 -2.316406 18.003906 -1.378906 16.578125 -0.703125 C 15.148438 -0.0234375 13.519531 0.3125 11.6875 0.3125 Z M 11.6875 0.3125 "/></g></g></g><g fill="#000000" fill-opacity="1"><g transform="translate(119.63676, 227.150287)"><g><path d="M 4.703125 0.125 C 3.867188 0.125 3.15625 -0.046875 2.5625 -0.390625 C 1.976562 -0.734375 1.535156 -1.175781 1.234375 -1.71875 C 0.941406 -2.257812 0.796875 -2.828125 0.796875 -3.421875 L 0.796875 -3.5 L 2.265625 -3.5 L 2.265625 -3.421875 C 2.265625 -3.066406 2.347656 -2.707031 2.515625 -2.34375 C 2.679688 -1.988281 2.945312 -1.691406 3.3125 -1.453125 C 3.6875 -1.210938 4.160156 -1.09375 4.734375 -1.09375 C 5.410156 -1.09375 5.96875 -1.265625 6.40625 -1.609375 C 6.851562 -1.960938 7.078125 -2.4375 7.078125 -3.03125 C 7.078125 -3.519531 6.914062 -3.910156 6.59375 -4.203125 C 6.269531 -4.492188 5.851562 -4.691406 5.34375 -4.796875 L 3.78125 -5.09375 C 1.976562 -5.488281 1.078125 -6.4375 1.078125 -7.9375 C 1.078125 -8.550781 1.222656 -9.085938 1.515625 -9.546875 C 1.816406 -10.003906 2.226562 -10.359375 2.75 -10.609375 C 3.28125 -10.867188 3.894531 -11 4.59375 -11 C 5.382812 -11 6.0625 -10.835938 6.625 -10.515625 C 7.1875 -10.203125 7.609375 -9.789062 7.890625 -9.28125 C 8.179688 -8.769531 8.328125 -8.242188 8.328125 -7.703125 L 8.328125 -7.640625 L 6.875 -7.640625 L 6.875 -7.6875 C 6.875 -8 6.796875 -8.316406 6.640625 -8.640625 C 6.492188 -8.960938 6.25 -9.238281 5.90625 -9.46875 C 5.5625 -9.707031 5.109375 -9.828125 4.546875 -9.828125 C 3.898438 -9.828125 3.382812 -9.644531 3 -9.28125 C 2.613281 -8.925781 2.421875 -8.484375 2.421875 -7.953125 C 2.421875 -7.492188 2.570312 -7.117188 2.875 -6.828125 C 3.175781 -6.546875 3.582031 -6.351562 4.09375 -6.25 L 5.5 -5.984375 C 7.476562 -5.578125 8.46875 -4.609375 8.46875 -3.078125 C 8.46875 -2.453125 8.3125 -1.894531 8 -1.40625 C 7.6875 -0.925781 7.242188 -0.550781 6.671875 -0.28125 C 6.097656 -0.0078125 5.441406 0.125 4.703125 0.125 Z M 4.703125 0.125 "/></g></g></g><g fill="#000000" fill-opacity="1"><g transform="translate(128.885496, 227.150287)"><g><path d="M 1.15625 -8.109375 L 2.453125 -8.109375 L 2.453125 -6.609375 L 2.578125 -6.609375 C 2.597656 -6.710938 2.703125 -6.898438 2.890625 -7.171875 C 3.078125 -7.441406 3.359375 -7.695312 3.734375 -7.9375 C 4.117188 -8.1875 4.59375 -8.3125 5.15625 -8.3125 C 5.75 -8.3125 6.238281 -8.171875 6.625 -7.890625 C 7.019531 -7.617188 7.316406 -7.320312 7.515625 -7 C 7.710938 -6.6875 7.8125 -6.488281 7.8125 -6.40625 L 7.9375 -6.40625 C 8.082031 -6.769531 8.363281 -7.175781 8.78125 -7.625 C 9.207031 -8.082031 9.863281 -8.3125 10.75 -8.3125 C 11.40625 -8.3125 11.953125 -8.144531 12.390625 -7.8125 C 12.828125 -7.476562 13.148438 -7.050781 13.359375 -6.53125 C 13.578125 -6.007812 13.6875 -5.453125 13.6875 -4.859375 L 13.6875 0 L 12.375 0 L 12.375 -4.734375 C 12.375 -5.515625 12.171875 -6.101562 11.765625 -6.5 C 11.359375 -6.90625 10.859375 -7.109375 10.265625 -7.109375 C 9.648438 -7.109375 9.128906 -6.898438 8.703125 -6.484375 C 8.285156 -6.066406 8.078125 -5.484375 8.078125 -4.734375 L 8.078125 0 L 6.765625 0 L 6.765625 -4.734375 C 6.765625 -5.515625 6.5625 -6.101562 6.15625 -6.5 C 5.75 -6.90625 5.25 -7.109375 4.65625 -7.109375 C 4.039062 -7.109375 3.519531 -6.898438 3.09375 -6.484375 C 2.664062 -6.066406 2.453125 -5.484375 2.453125 -4.734375 L 2.453125 0 L 1.15625 0 Z M 1.15625 -8.109375 "/></g></g></g><g fill="#000000" fill-opacity="1"><g transform="translate(143.649667, 227.150287)"><g><path d="M 4.125 0.109375 C 3.40625 0.109375 2.789062 -0.0703125 2.28125 -0.4375 C 1.769531 -0.8125 1.378906 -1.316406 1.109375 -1.953125 C 0.847656 -2.585938 0.71875 -3.304688 0.71875 -4.109375 C 0.71875 -4.898438 0.851562 -5.613281 1.125 -6.25 C 1.394531 -6.894531 1.789062 -7.398438 2.3125 -7.765625 C 2.832031 -8.128906 3.453125 -8.3125 4.171875 -8.3125 C 4.890625 -8.3125 5.46875 -8.140625 5.90625 -7.796875 C 6.34375 -7.460938 6.675781 -7.0625 6.90625 -6.59375 L 7.015625 -6.59375 L 7.015625 -8.109375 L 8.34375 -8.109375 L 8.34375 0 L 7.015625 0 L 7.015625 -1.65625 L 6.90625 -1.65625 C 6.65625 -1.175781 6.304688 -0.757812 5.859375 -0.40625 C 5.410156 -0.0625 4.832031 0.109375 4.125 0.109375 Z M 4.53125 -1.03125 C 5.320312 -1.03125 5.925781 -1.320312 6.34375 -1.90625 C 6.769531 -2.5 6.984375 -3.234375 6.984375 -4.109375 C 6.984375 -4.972656 6.769531 -5.703125 6.34375 -6.296875 C 5.925781 -6.890625 5.320312 -7.1875 4.53125 -7.1875 C 3.726562 -7.1875 3.117188 -6.890625 2.703125 -6.296875 C 2.285156 -5.710938 2.078125 -4.988281 2.078125 -4.125 C 2.078125 -3.238281 2.285156 -2.5 2.703125 -1.90625 C 3.117188 -1.320312 3.726562 -1.03125 4.53125 -1.03125 Z M 4.53125 -1.03125 "/></g></g></g><g fill="#000000" fill-opacity="1"><g transform="translate(153.174939, 227.150287)"><g><path d="M 1.09375 -8.109375 L 2.40625 -8.109375 L 2.40625 -6.8125 L 2.5 -6.8125 C 2.632812 -7.164062 2.875 -7.46875 3.21875 -7.71875 C 3.5625 -7.976562 3.992188 -8.109375 4.515625 -8.109375 C 4.679688 -8.109375 4.8125 -8.097656 4.90625 -8.078125 C 5.007812 -8.066406 5.125 -8.039062 5.25 -8 L 5.203125 -6.703125 C 5.035156 -6.753906 4.890625 -6.789062 4.765625 -6.8125 C 4.648438 -6.832031 4.503906 -6.84375 4.328125 -6.84375 C 3.046875 -6.84375 2.40625 -6.085938 2.40625 -4.578125 L 2.40625 0 L 1.09375 0 Z M 1.09375 -8.109375 "/></g></g></g><g fill="#000000" fill-opacity="1"><g transform="translate(158.59819, 227.150287)"><g><path d="M 3.328125 -7.046875 L 3.328125 -2.34375 C 3.328125 -1.957031 3.34375 -1.675781 3.375 -1.5 C 3.40625 -1.320312 3.5 -1.179688 3.65625 -1.078125 C 3.820312 -0.972656 4.082031 -0.921875 4.4375 -0.921875 C 4.6875 -0.921875 4.957031 -0.957031 5.25 -1.03125 L 5.25 -0.078125 C 5.175781 -0.046875 5.015625 -0.015625 4.765625 0.015625 C 4.523438 0.046875 4.28125 0.0625 4.03125 0.0625 C 3.4375 0.0625 2.992188 -0.0195312 2.703125 -0.1875 C 2.410156 -0.363281 2.21875 -0.597656 2.125 -0.890625 C 2.039062 -1.179688 2 -1.566406 2 -2.046875 L 2 -7.046875 L 0.484375 -7.046875 L 0.484375 -8.109375 L 2 -8.109375 L 2 -10.765625 L 3.328125 -10.765625 L 3.328125 -8.109375 L 5.25 -8.109375 L 5.25 -7.046875 Z M 3.328125 -7.046875 "/></g></g></g><g fill="#000000" fill-opacity="1"><g transform="translate(164.635978, 227.150287)"><g/></g></g><g fill="#000000" fill-opacity="1"><g transform="translate(168.169548, 227.150287)"><g><path d="M 7.421875 -3.140625 L 3.046875 -3.140625 L 1.90625 0 L 0.546875 0 L 4.59375 -10.765625 L 5.859375 -10.765625 L 9.9375 0 L 8.578125 0 Z M 7.046875 -4.203125 L 5.25 -9.078125 L 5.1875 -9.078125 L 3.421875 -4.203125 Z M 7.046875 -4.203125 "/></g></g></g><g fill="#000000" fill-opacity="1"><g transform="translate(178.201701, 227.150287)"><g><path d="M 4.15625 0.109375 C 3.4375 0.109375 2.820312 -0.0703125 2.3125 -0.4375 C 1.800781 -0.8125 1.410156 -1.316406 1.140625 -1.953125 C 0.878906 -2.585938 0.75 -3.304688 0.75 -4.109375 C 0.75 -4.910156 0.878906 -5.628906 1.140625 -6.265625 C 1.410156 -6.898438 1.800781 -7.398438 2.3125 -7.765625 C 2.832031 -8.128906 3.457031 -8.3125 4.1875 -8.3125 C 4.90625 -8.3125 5.484375 -8.140625 5.921875 -7.796875 C 6.367188 -7.453125 6.703125 -7.050781 6.921875 -6.59375 L 7.046875 -6.59375 L 7.046875 -11.53125 L 8.359375 -11.53125 L 8.359375 0 L 7.046875 0 L 7.046875 -1.65625 L 6.921875 -1.65625 C 6.671875 -1.164062 6.320312 -0.75 5.875 -0.40625 C 5.4375 -0.0625 4.863281 0.109375 4.15625 0.109375 Z M 4.546875 -1.03125 C 5.347656 -1.03125 5.957031 -1.320312 6.375 -1.90625 C 6.800781 -2.5 7.015625 -3.234375 7.015625 -4.109375 C 7.015625 -4.972656 6.800781 -5.695312 6.375 -6.28125 C 5.957031 -6.875 5.347656 -7.171875 4.546875 -7.171875 C 3.742188 -7.171875 3.132812 -6.875 2.71875 -6.28125 C 2.3125 -5.695312 2.109375 -4.972656 2.109375 -4.109375 C 2.109375 -3.222656 2.316406 -2.488281 2.734375 -1.90625 C 3.148438 -1.320312 3.753906 -1.03125 4.546875 -1.03125 Z M 4.546875 -1.03125 "/></g></g></g><g fill="#000000" fill-opacity="1"><g transform="translate(187.711603, 227.150287)"><g><path d="M 3.921875 0.109375 C 3.265625 0.109375 2.691406 -0.0195312 2.203125 -0.28125 C 1.722656 -0.539062 1.359375 -0.875 1.109375 -1.28125 C 0.859375 -1.695312 0.734375 -2.128906 0.734375 -2.578125 L 0.734375 -2.65625 L 2.0625 -2.65625 L 2.0625 -2.59375 C 2.0625 -2.34375 2.128906 -2.085938 2.265625 -1.828125 C 2.410156 -1.578125 2.628906 -1.375 2.921875 -1.21875 C 3.210938 -1.0625 3.5625 -0.984375 3.96875 -0.984375 C 4.457031 -0.984375 4.863281 -1.101562 5.1875 -1.34375 C 5.507812 -1.582031 5.671875 -1.914062 5.671875 -2.34375 C 5.671875 -2.6875 5.546875 -2.957031 5.296875 -3.15625 C 5.046875 -3.363281 4.726562 -3.5 4.34375 -3.5625 L 3.296875 -3.71875 C 2.628906 -3.820312 2.066406 -4.050781 1.609375 -4.40625 C 1.160156 -4.757812 0.9375 -5.273438 0.9375 -5.953125 C 0.9375 -6.703125 1.203125 -7.28125 1.734375 -7.6875 C 2.273438 -8.101562 2.96875 -8.3125 3.8125 -8.3125 C 4.4375 -8.3125 4.972656 -8.195312 5.421875 -7.96875 C 5.867188 -7.738281 6.207031 -7.4375 6.4375 -7.0625 C 6.675781 -6.6875 6.796875 -6.28125 6.796875 -5.84375 L 6.796875 -5.78125 L 5.46875 -5.78125 L 5.46875 -5.8125 C 5.46875 -6.019531 5.414062 -6.234375 5.3125 -6.453125 C 5.207031 -6.679688 5.023438 -6.875 4.765625 -7.03125 C 4.503906 -7.195312 4.175781 -7.28125 3.78125 -7.28125 C 3.289062 -7.28125 2.894531 -7.160156 2.59375 -6.921875 C 2.300781 -6.679688 2.15625 -6.367188 2.15625 -5.984375 C 2.15625 -5.660156 2.269531 -5.394531 2.5 -5.1875 C 2.738281 -4.988281 3.035156 -4.859375 3.390625 -4.796875 L 4.546875 -4.609375 C 5.222656 -4.492188 5.789062 -4.257812 6.25 -3.90625 C 6.71875 -3.550781 6.953125 -3.035156 6.953125 -2.359375 C 6.953125 -1.859375 6.820312 -1.421875 6.5625 -1.046875 C 6.300781 -0.679688 5.9375 -0.394531 5.46875 -0.1875 C 5.007812 0.0078125 4.492188 0.109375 3.921875 0.109375 Z M 3.921875 0.109375 "/></g></g></g><g fill="#000000" fill-opacity="1"><g transform="translate(195.331823, 227.150287)"><g><path d="M 1.5 1.90625 C 2.125 1.625 2.4375 1.210938 2.4375 0.671875 C 2.4375 0.421875 2.394531 0.257812 2.3125 0.1875 C 2.226562 0.125 2.097656 0.09375 1.921875 0.09375 C 1.410156 0.09375 1.15625 -0.15625 1.15625 -0.65625 C 1.15625 -0.9375 1.238281 -1.15625 1.40625 -1.3125 C 1.570312 -1.476562 1.8125 -1.5625 2.125 -1.5625 C 2.851562 -1.5625 3.21875 -1.171875 3.21875 -0.390625 L 3.21875 0.171875 C 3.21875 0.804688 3.0625 1.3125 2.75 1.6875 C 2.4375 2.0625 2.019531 2.320312 1.5 2.46875 Z M 1.5 1.90625 "/></g></g></g><g fill="#000000" fill-opacity="1"><g transform="translate(199.725736, 227.150287)"><g><path d="M 1.15625 -10.765625 L 5.453125 -10.765625 C 6.171875 -10.765625 6.757812 -10.625 7.21875 -10.34375 C 7.675781 -10.070312 8 -9.726562 8.1875 -9.3125 C 8.382812 -8.894531 8.484375 -8.46875 8.484375 -8.03125 C 8.484375 -7.5625 8.382812 -7.15625 8.1875 -6.8125 C 8 -6.476562 7.765625 -6.21875 7.484375 -6.03125 C 7.210938 -5.851562 6.953125 -5.738281 6.703125 -5.6875 L 6.703125 -5.59375 C 6.972656 -5.570312 7.285156 -5.476562 7.640625 -5.3125 C 7.992188 -5.144531 8.304688 -4.875 8.578125 -4.5 C 8.847656 -4.125 8.984375 -3.648438 8.984375 -3.078125 C 8.984375 -2.566406 8.863281 -2.078125 8.625 -1.609375 C 8.394531 -1.140625 8.035156 -0.753906 7.546875 -0.453125 C 7.054688 -0.148438 6.441406 0 5.703125 0 L 1.15625 0 Z M 5.078125 -6.046875 C 5.660156 -6.046875 6.160156 -6.195312 6.578125 -6.5 C 6.992188 -6.800781 7.203125 -7.269531 7.203125 -7.90625 C 7.203125 -8.507812 7 -8.945312 6.59375 -9.21875 C 6.195312 -9.5 5.691406 -9.640625 5.078125 -9.640625 L 2.4375 -9.640625 L 2.4375 -6.046875 Z M 5.359375 -1.125 C 6.023438 -1.125 6.578125 -1.273438 7.015625 -1.578125 C 7.460938 -1.890625 7.6875 -2.394531 7.6875 -3.09375 C 7.6875 -3.78125 7.460938 -4.269531 7.015625 -4.5625 C 6.578125 -4.851562 6.023438 -5 5.359375 -5 L 2.4375 -5 L 2.4375 -1.125 Z M 5.359375 -1.125 "/></g></g></g><g fill="#000000" fill-opacity="1"><g transform="translate(209.312462, 227.150287)"><g><path d="M 1.265625 -8.109375 L 2.578125 -8.109375 L 2.578125 0 L 1.265625 0 Z M 1.90625 -9.609375 C 1.65625 -9.609375 1.445312 -9.691406 1.28125 -9.859375 C 1.125 -10.023438 1.046875 -10.226562 1.046875 -10.46875 C 1.046875 -10.707031 1.125 -10.910156 1.28125 -11.078125 C 1.445312 -11.242188 1.65625 -11.328125 1.90625 -11.328125 C 2.15625 -11.328125 2.363281 -11.242188 2.53125 -11.078125 C 2.695312 -10.910156 2.78125 -10.707031 2.78125 -10.46875 C 2.78125 -10.226562 2.695312 -10.023438 2.53125 -9.859375 C 2.363281 -9.691406 2.15625 -9.609375 1.90625 -9.609375 Z M 1.90625 -9.609375 "/></g></g></g><g fill="#000000" fill-opacity="1"><g transform="translate(213.153294, 227.150287)"><g><path d="M 4.78125 3.25 C 4.476562 3.25 4.226562 3.226562 4.03125 3.1875 C 3.84375 3.144531 3.648438 3.085938 3.453125 3.015625 L 3.453125 1.90625 C 3.585938 1.945312 3.765625 1.984375 3.984375 2.015625 C 4.210938 2.054688 4.4375 2.078125 4.65625 2.078125 C 5.457031 2.078125 6.0625 1.847656 6.46875 1.390625 C 6.875 0.941406 7.078125 0.34375 7.078125 -0.40625 L 7.078125 -1.859375 L 6.953125 -1.859375 C 6.734375 -1.378906 6.382812 -0.972656 5.90625 -0.640625 C 5.4375 -0.304688 4.863281 -0.140625 4.1875 -0.140625 C 3.507812 -0.140625 2.910156 -0.3125 2.390625 -0.65625 C 1.878906 -1.007812 1.484375 -1.492188 1.203125 -2.109375 C 0.921875 -2.734375 0.78125 -3.445312 0.78125 -4.25 C 0.78125 -5.039062 0.921875 -5.742188 1.203125 -6.359375 C 1.484375 -6.984375 1.878906 -7.46875 2.390625 -7.8125 C 2.910156 -8.164062 3.507812 -8.34375 4.1875 -8.34375 C 4.894531 -8.34375 5.484375 -8.160156 5.953125 -7.796875 C 6.429688 -7.429688 6.769531 -7.007812 6.96875 -6.53125 L 7.078125 -6.53125 L 7.078125 -8.09375 L 8.40625 -8.09375 L 8.40625 -0.40625 C 8.40625 0.175781 8.289062 0.742188 8.0625 1.296875 C 7.832031 1.847656 7.445312 2.3125 6.90625 2.6875 C 6.363281 3.0625 5.65625 3.25 4.78125 3.25 Z M 4.609375 -1.28125 C 5.128906 -1.28125 5.570312 -1.421875 5.9375 -1.703125 C 6.3125 -1.984375 6.585938 -2.347656 6.765625 -2.796875 C 6.953125 -3.253906 7.046875 -3.75 7.046875 -4.28125 C 7.046875 -4.789062 6.953125 -5.265625 6.765625 -5.703125 C 6.585938 -6.140625 6.316406 -6.5 5.953125 -6.78125 C 5.585938 -7.0625 5.140625 -7.203125 4.609375 -7.203125 C 3.816406 -7.203125 3.210938 -6.914062 2.796875 -6.34375 C 2.390625 -5.769531 2.1875 -5.082031 2.1875 -4.28125 C 2.1875 -3.738281 2.273438 -3.238281 2.453125 -2.78125 C 2.628906 -2.332031 2.898438 -1.96875 3.265625 -1.6875 C 3.628906 -1.414062 4.078125 -1.28125 4.609375 -1.28125 Z M 4.609375 -1.28125 "/></g></g></g><g fill="#000000" fill-opacity="1"><g transform="translate(222.816868, 227.150287)"><g><path d="M 4.78125 3.25 C 4.476562 3.25 4.226562 3.226562 4.03125 3.1875 C 3.84375 3.144531 3.648438 3.085938 3.453125 3.015625 L 3.453125 1.90625 C 3.585938 1.945312 3.765625 1.984375 3.984375 2.015625 C 4.210938 2.054688 4.4375 2.078125 4.65625 2.078125 C 5.457031 2.078125 6.0625 1.847656 6.46875 1.390625 C 6.875 0.941406 7.078125 0.34375 7.078125 -0.40625 L 7.078125 -1.859375 L 6.953125 -1.859375 C 6.734375 -1.378906 6.382812 -0.972656 5.90625 -0.640625 C 5.4375 -0.304688 4.863281 -0.140625 4.1875 -0.140625 C 3.507812 -0.140625 2.910156 -0.3125 2.390625 -0.65625 C 1.878906 -1.007812 1.484375 -1.492188 1.203125 -2.109375 C 0.921875 -2.734375 0.78125 -3.445312 0.78125 -4.25 C 0.78125 -5.039062 0.921875 -5.742188 1.203125 -6.359375 C 1.484375 -6.984375 1.878906 -7.46875 2.390625 -7.8125 C 2.910156 -8.164062 3.507812 -8.34375 4.1875 -8.34375 C 4.894531 -8.34375 5.484375 -8.160156 5.953125 -7.796875 C 6.429688 -7.429688 6.769531 -7.007812 6.96875 -6.53125 L 7.078125 -6.53125 L 7.078125 -8.09375 L 8.40625 -8.09375 L 8.40625 -0.40625 C 8.40625 0.175781 8.289062 0.742188 8.0625 1.296875 C 7.832031 1.847656 7.445312 2.3125 6.90625 2.6875 C 6.363281 3.0625 5.65625 3.25 4.78125 3.25 Z M 4.609375 -1.28125 C 5.128906 -1.28125 5.570312 -1.421875 5.9375 -1.703125 C 6.3125 -1.984375 6.585938 -2.347656 6.765625 -2.796875 C 6.953125 -3.253906 7.046875 -3.75 7.046875 -4.28125 C 7.046875 -4.789062 6.953125 -5.265625 6.765625 -5.703125 C 6.585938 -6.140625 6.316406 -6.5 5.953125 -6.78125 C 5.585938 -7.0625 5.140625 -7.203125 4.609375 -7.203125 C 3.816406 -7.203125 3.210938 -6.914062 2.796875 -6.34375 C 2.390625 -5.769531 2.1875 -5.082031 2.1875 -4.28125 C 2.1875 -3.738281 2.273438 -3.238281 2.453125 -2.78125 C 2.628906 -2.332031 2.898438 -1.96875 3.265625 -1.6875 C 3.628906 -1.414062 4.078125 -1.28125 4.609375 -1.28125 Z M 4.609375 -1.28125 "/></g></g></g><g fill="#000000" fill-opacity="1"><g transform="translate(232.480441, 227.150287)"><g><path d="M 4.5625 0.109375 C 3.738281 0.109375 3.039062 -0.0859375 2.46875 -0.484375 C 1.894531 -0.890625 1.46875 -1.414062 1.1875 -2.0625 C 0.914062 -2.707031 0.78125 -3.390625 0.78125 -4.109375 C 0.78125 -4.835938 0.914062 -5.519531 1.1875 -6.15625 C 1.46875 -6.800781 1.894531 -7.320312 2.46875 -7.71875 C 3.050781 -8.113281 3.753906 -8.3125 4.578125 -8.3125 C 5.671875 -8.3125 6.539062 -7.945312 7.1875 -7.21875 C 7.84375 -6.5 8.171875 -5.457031 8.171875 -4.09375 L 8.171875 -3.71875 L 2.109375 -3.71875 L 2.109375 -3.609375 C 2.109375 -3.160156 2.207031 -2.734375 2.40625 -2.328125 C 2.613281 -1.929688 2.898438 -1.609375 3.265625 -1.359375 C 3.640625 -1.117188 4.066406 -1 4.546875 -1 C 5.066406 -1 5.515625 -1.128906 5.890625 -1.390625 C 6.273438 -1.660156 6.5625 -2.019531 6.75 -2.46875 L 8.0625 -2.46875 C 7.84375 -1.738281 7.4375 -1.125 6.84375 -0.625 C 6.257812 -0.132812 5.5 0.109375 4.5625 0.109375 Z M 6.859375 -4.65625 C 6.816406 -5.582031 6.585938 -6.25 6.171875 -6.65625 C 5.765625 -7.0625 5.226562 -7.265625 4.5625 -7.265625 C 3.832031 -7.265625 3.253906 -7.023438 2.828125 -6.546875 C 2.398438 -6.066406 2.171875 -5.4375 2.140625 -4.65625 Z M 6.859375 -4.65625 "/></g></g></g><g fill="#000000" fill-opacity="1"><g transform="translate(241.437262, 227.150287)"><g><path d="M 1.09375 -8.109375 L 2.40625 -8.109375 L 2.40625 -6.8125 L 2.5 -6.8125 C 2.632812 -7.164062 2.875 -7.46875 3.21875 -7.71875 C 3.5625 -7.976562 3.992188 -8.109375 4.515625 -8.109375 C 4.679688 -8.109375 4.8125 -8.097656 4.90625 -8.078125 C 5.007812 -8.066406 5.125 -8.039062 5.25 -8 L 5.203125 -6.703125 C 5.035156 -6.753906 4.890625 -6.789062 4.765625 -6.8125 C 4.648438 -6.832031 4.503906 -6.84375 4.328125 -6.84375 C 3.046875 -6.84375 2.40625 -6.085938 2.40625 -4.578125 L 2.40625 0 L 1.09375 0 Z M 1.09375 -8.109375 "/></g></g></g><g fill="#000000" fill-opacity="1"><g transform="translate(246.860514, 227.150287)"><g/></g></g><g fill="#000000" fill-opacity="1"><g transform="translate(250.394083, 227.150287)"><g><path d="M 1.203125 -10.765625 L 2.53125 -10.765625 L 2.53125 0 L 1.203125 0 Z M 1.203125 -10.765625 "/></g></g></g><g fill="#000000" fill-opacity="1"><g transform="translate(254.234949, 227.150287)"><g><path d="M 1.15625 -8.109375 L 2.453125 -8.109375 L 2.453125 -6.609375 L 2.578125 -6.609375 C 2.597656 -6.710938 2.703125 -6.898438 2.890625 -7.171875 C 3.078125 -7.441406 3.359375 -7.695312 3.734375 -7.9375 C 4.117188 -8.1875 4.59375 -8.3125 5.15625 -8.3125 C 5.75 -8.3125 6.238281 -8.171875 6.625 -7.890625 C 7.019531 -7.617188 7.316406 -7.320312 7.515625 -7 C 7.710938 -6.6875 7.8125 -6.488281 7.8125 -6.40625 L 7.9375 -6.40625 C 8.082031 -6.769531 8.363281 -7.175781 8.78125 -7.625 C 9.207031 -8.082031 9.863281 -8.3125 10.75 -8.3125 C 11.40625 -8.3125 11.953125 -8.144531 12.390625 -7.8125 C 12.828125 -7.476562 13.148438 -7.050781 13.359375 -6.53125 C 13.578125 -6.007812 13.6875 -5.453125 13.6875 -4.859375 L 13.6875 0 L 12.375 0 L 12.375 -4.734375 C 12.375 -5.515625 12.171875 -6.101562 11.765625 -6.5 C 11.359375 -6.90625 10.859375 -7.109375 10.265625 -7.109375 C 9.648438 -7.109375 9.128906 -6.898438 8.703125 -6.484375 C 8.285156 -6.066406 8.078125 -5.484375 8.078125 -4.734375 L 8.078125 0 L 6.765625 0 L 6.765625 -4.734375 C 6.765625 -5.515625 6.5625 -6.101562 6.15625 -6.5 C 5.75 -6.90625 5.25 -7.109375 4.65625 -7.109375 C 4.039062 -7.109375 3.519531 -6.898438 3.09375 -6.484375 C 2.664062 -6.066406 2.453125 -5.484375 2.453125 -4.734375 L 2.453125 0 L 1.15625 0 Z M 1.15625 -8.109375 "/></g></g></g><g fill="#000000" fill-opacity="1"><g transform="translate(268.999119, 227.150287)"><g><path d="M 5.359375 0.109375 C 4.660156 0.109375 4.082031 -0.0625 3.625 -0.40625 C 3.175781 -0.757812 2.828125 -1.175781 2.578125 -1.65625 L 2.46875 -1.65625 L 2.46875 3.125 L 1.140625 3.125 L 1.140625 -8.109375 L 2.46875 -8.109375 L 2.46875 -6.59375 L 2.578125 -6.59375 C 2.804688 -7.0625 3.140625 -7.460938 3.578125 -7.796875 C 4.023438 -8.140625 4.601562 -8.3125 5.3125 -8.3125 C 6.039062 -8.3125 6.664062 -8.128906 7.1875 -7.765625 C 7.707031 -7.398438 8.097656 -6.894531 8.359375 -6.25 C 8.628906 -5.613281 8.765625 -4.898438 8.765625 -4.109375 C 8.765625 -3.304688 8.628906 -2.585938 8.359375 -1.953125 C 8.097656 -1.316406 7.707031 -0.8125 7.1875 -0.4375 C 6.675781 -0.0703125 6.066406 0.109375 5.359375 0.109375 Z M 4.953125 -1.03125 C 5.753906 -1.03125 6.359375 -1.320312 6.765625 -1.90625 C 7.179688 -2.488281 7.390625 -3.222656 7.390625 -4.109375 C 7.390625 -4.972656 7.1875 -5.695312 6.78125 -6.28125 C 6.375 -6.875 5.765625 -7.171875 4.953125 -7.171875 C 4.148438 -7.171875 3.539062 -6.875 3.125 -6.28125 C 2.707031 -5.695312 2.5 -4.972656 2.5 -4.109375 C 2.5 -3.234375 2.707031 -2.5 3.125 -1.90625 C 3.550781 -1.320312 4.160156 -1.03125 4.953125 -1.03125 Z M 4.953125 -1.03125 "/></g></g></g><g fill="#000000" fill-opacity="1"><g transform="translate(278.555118, 227.150287)"><g><path d="M 4.125 0.109375 C 3.40625 0.109375 2.789062 -0.0703125 2.28125 -0.4375 C 1.769531 -0.8125 1.378906 -1.316406 1.109375 -1.953125 C 0.847656 -2.585938 0.71875 -3.304688 0.71875 -4.109375 C 0.71875 -4.898438 0.851562 -5.613281 1.125 -6.25 C 1.394531 -6.894531 1.789062 -7.398438 2.3125 -7.765625 C 2.832031 -8.128906 3.453125 -8.3125 4.171875 -8.3125 C 4.890625 -8.3125 5.46875 -8.140625 5.90625 -7.796875 C 6.34375 -7.460938 6.675781 -7.0625 6.90625 -6.59375 L 7.015625 -6.59375 L 7.015625 -8.109375 L 8.34375 -8.109375 L 8.34375 0 L 7.015625 0 L 7.015625 -1.65625 L 6.90625 -1.65625 C 6.65625 -1.175781 6.304688 -0.757812 5.859375 -0.40625 C 5.410156 -0.0625 4.832031 0.109375 4.125 0.109375 Z M 4.53125 -1.03125 C 5.320312 -1.03125 5.925781 -1.320312 6.34375 -1.90625 C 6.769531 -2.5 6.984375 -3.234375 6.984375 -4.109375 C 6.984375 -4.972656 6.769531 -5.703125 6.34375 -6.296875 C 5.925781 -6.890625 5.320312 -7.1875 4.53125 -7.1875 C 3.726562 -7.1875 3.117188 -6.890625 2.703125 -6.296875 C 2.285156 -5.710938 2.078125 -4.988281 2.078125 -4.125 C 2.078125 -3.238281 2.285156 -2.5 2.703125 -1.90625 C 3.117188 -1.320312 3.726562 -1.03125 4.53125 -1.03125 Z M 4.53125 -1.03125 "/></g></g></g><g fill="#000000" fill-opacity="1"><g transform="translate(288.034293, 227.150287)"><g><path d="M 4.609375 0.109375 C 3.773438 0.109375 3.066406 -0.0859375 2.484375 -0.484375 C 1.898438 -0.890625 1.46875 -1.410156 1.1875 -2.046875 C 0.914062 -2.691406 0.78125 -3.378906 0.78125 -4.109375 C 0.78125 -4.835938 0.914062 -5.519531 1.1875 -6.15625 C 1.46875 -6.800781 1.898438 -7.320312 2.484375 -7.71875 C 3.066406 -8.113281 3.773438 -8.3125 4.609375 -8.3125 C 5.660156 -8.3125 6.484375 -8.007812 7.078125 -7.40625 C 7.679688 -6.800781 8.046875 -6.0625 8.171875 -5.1875 L 6.875 -5.1875 C 6.78125 -5.78125 6.539062 -6.265625 6.15625 -6.640625 C 5.78125 -7.015625 5.269531 -7.203125 4.625 -7.203125 C 3.800781 -7.203125 3.175781 -6.90625 2.75 -6.3125 C 2.332031 -5.71875 2.125 -4.984375 2.125 -4.109375 C 2.125 -3.222656 2.332031 -2.484375 2.75 -1.890625 C 3.175781 -1.304688 3.800781 -1.015625 4.625 -1.015625 C 5.269531 -1.015625 5.78125 -1.195312 6.15625 -1.5625 C 6.539062 -1.9375 6.78125 -2.425781 6.875 -3.03125 L 8.171875 -3.03125 C 8.046875 -2.144531 7.679688 -1.398438 7.078125 -0.796875 C 6.484375 -0.191406 5.660156 0.109375 4.609375 0.109375 Z M 4.609375 0.109375 "/></g></g></g><g fill="#000000" fill-opacity="1"><g transform="translate(296.883574, 227.150287)"><g><path d="M 3.328125 -7.046875 L 3.328125 -2.34375 C 3.328125 -1.957031 3.34375 -1.675781 3.375 -1.5 C 3.40625 -1.320312 3.5 -1.179688 3.65625 -1.078125 C 3.820312 -0.972656 4.082031 -0.921875 4.4375 -0.921875 C 4.6875 -0.921875 4.957031 -0.957031 5.25 -1.03125 L 5.25 -0.078125 C 5.175781 -0.046875 5.015625 -0.015625 4.765625 0.015625 C 4.523438 0.046875 4.28125 0.0625 4.03125 0.0625 C 3.4375 0.0625 2.992188 -0.0195312 2.703125 -0.1875 C 2.410156 -0.363281 2.21875 -0.597656 2.125 -0.890625 C 2.039062 -1.179688 2 -1.566406 2 -2.046875 L 2 -7.046875 L 0.484375 -7.046875 L 0.484375 -8.109375 L 2 -8.109375 L 2 -10.765625 L 3.328125 -10.765625 L 3.328125 -8.109375 L 5.25 -8.109375 L 5.25 -7.046875 Z M 3.328125 -7.046875 "/></g></g></g></svg>