<svg xmlns="http://www.w3.org/2000/svg" version="1.1" xmlns:xlink="http://www.w3.org/1999/xlink" xmlns:svgjs="http://svgjs.dev/svgjs" viewBox="0 0 17.703229642581373 6.924545226883106"><g transform="matrix(0.7713772278579407,0,0,0.7713772278579407,6.8186185107328106,2.5664163803791435)"><g transform="matrix(1,0,0,1,0,0)" clip-path="url(#SvgjsClipPath69694)"><g clip-path="url(#SvgjsClipPath6969277053d13-87a4-4f3b-abe1-3af3ebd5bbe6)"><path d=" M -2.6247729299467633 0.12810631037675613 C -2.7330130731027142 0.07113781397888674 -2.831283729389038 0.06544096433910074 -2.9352512353151488 0.12810631037675613 C -3.0420671660611527 0.19219586882435857 -3.1517315216270503 0.2505885776321741 -3.2599716647830013 0.31182971125988224 C -3.39954448095778 0.39158560621689964 -3.400968693367726 0.4129487923661004 -3.264244302012842 0.49412889973306307 C -2.6119550182572433 0.8786662504186786 -1.9582415220916984 1.2603551762843996 -1.3045280259261536 1.6434683145600673 C -1.0595634914153171 1.7873137679646867 -1.0538666417755298 2.0450962141650426 -1.3002553886963133 2.1889416675696616 C -1.7317917489101697 2.4410272641302315 -2.16617653394392 2.687416011051015 -2.5991371065677225 2.9366531827916904 C -2.6974077628540467 2.9936216791895593 -2.79140578191053 2.9936216791895593 -2.8882522257869074 2.935228970381744 C -3.012158705452272 2.8611699250645146 -3.136065185117636 2.7899593045671787 -3.2613958771929488 2.717324471659895 C -3.7499007338046737 2.4339062020804976 -4.27258668825512 2.122003684302166 -4.900664361041625 1.7645263694055386 C -5.090084611564539 1.6577104386595347 -5.165567869291714 1.6377714649202813 -5.179809993391181 1.7545568825359115 C -4.913482272731145 2.81986776517606 -3.952138896017108 3.5932151037771294 -2.8284353045691457 3.59748774100697 C -2.777163657811063 3.59748774100697 -2.725892011052981 3.5960635285970244 -2.6746203642948996 3.593215103777131 C -1.481130364759546 3.5234286956897427 -0.5411501741947093 2.6062359036840523 -0.40015314560998494 1.4597449136769418 C -0.38448680910056954 1.2332951404954122 -1.5737041714060824 0.6849733626659242 -2.6247729299467633 0.12810631037675613 Z M -2.693135125624205 3.2599493998495963 C -2.737285710332554 3.2627978246694904 -2.782860507450849 3.264222037079436 -2.827011092159197 3.264222037079436 C -2.9751291827936552 3.264222037079436 -3.118974636198274 3.2457072757501293 -3.2585474523730533 3.2157988151412478 C -2.6119550182572424 3.1873145669423137 -1.7061559255311267 2.9437742448414235 -0.989777083327926 2.1974869420293417 C -1.3287396368952469 2.795656154206966 -1.9553930972718043 3.2172230275511944 -2.693135125624205 3.2599493998495963 Z" fill="#173054" transform="matrix(1,0,0,1,0,0)" fill-rule="nonzero"></path></g><g clip-path="url(#SvgjsClipPath6969277053d13-87a4-4f3b-abe1-3af3ebd5bbe6)"><path d=" M -2.2316903048014676 1.858524388462023 C -2.8839795885570663 1.473987037776408 -3.537693084722611 1.0937223243206335 -4.191406580888157 0.7091849736350184 C -4.436371115398993 0.5653395202303995 -4.442067965038779 0.3075570740300435 -4.195679218117997 0.16371162062542388 C -3.7641428579041403 -0.0883739759351454 -3.3297580728703906 -0.3333385104459815 -2.8967975002465867 -0.5839998945966048 C -2.7985268439602637 -0.6409683909944738 -2.7045288249037798 -0.6409683909944738 -2.6062581686174564 -0.5825756821866578 C -2.4823516889520914 -0.5085166368694285 -2.358445209286727 -0.4373060163720922 -2.2331145172114155 -0.36467118346480965 C -1.7446096605996897 -0.08125291388541234 -1.2190752813293502 0.22495275425313288 -0.5938460333627402 0.5881269187895481 C -0.5924218209527918 0.5895511311994954 -0.4727879785172684 0.6265806538581093 -0.46566691646753533 0.532582634801626 C -0.46566691646753533 0.5297342099817326 -0.48133325297694984 0.46564465153413015 -0.48275746538689557 0.4627962267142367 C -0.7861147087055462 -0.5469703719379884 -1.7175496248107036 -1.2704702761909228 -2.802799481190105 -1.2747429134207633 C -2.854071127948187 -1.2747429134207633 -2.9053427747062686 -1.2733187010108167 -2.9566144214643515 -1.2704702761909228 C -4.048985339893486 -1.2063807177433203 -4.92914860924056 -0.43160916673230454 -5.178385780981237 0.5781574319199219 C -5.231081640149265 0.7390934342439017 -5.088660399154593 0.7960619306417702 -5.043085602036298 0.8416367277600654 C -4.782454731016048 1.0481475272023406 -3.853868239730785 1.731769483976766 -2.868313252047655 2.225971190228279 C -2.7586488964817573 2.2815154742162003 -2.6618024526053796 2.288636536265934 -2.557834946679269 2.225971190228279 C -2.451019015933265 2.1618816317806764 -2.3413546603673674 2.10348892297286 -2.2331145172114164 2.042247789345152 C -2.0963901258565287 1.9624918943881338 -2.0949659134465817 1.9397044958289866 -2.2316903048014676 1.858524388462023 Z M -4.634336640381586 0.12810631037675613 C -4.644306127251213 0.14092422206627586 -4.652851401710894 0.15089370893590393 -4.662820888580521 0.16371162062542388 C -4.328130972243041 -0.45439656529145245 -3.6929322374068043 -0.8916297751450968 -2.9395238725449886 -0.9357803598534451 C -2.8953732878366396 -0.9386287846733384 -2.849798490718345 -0.9400529970832852 -2.805647906009997 -0.9400529970832852 C -2.5891676196980953 -0.9386287846733389 -2.3783841830259798 -0.9044476868346174 -2.180418658043386 -0.8417823407969612 C -3.043491378471099 -0.8816602882754695 -4.074621163272525 -0.5256071857887888 -4.634336640381586 0.12810631037675613 Z" fill="#173054" transform="matrix(1,0,0,1,0,0)" fill-rule="nonzero"></path></g></g><g><path d=" M 0.1635 1.1444999999999999 Q 0.14400000000000002 1.1444999999999999 0.129 1.13475 Q 0.114 1.1249999999999998 0.114 1.1055 L 0.114 0.09599999999999986 Q 0.114 0.06899999999999973 0.129 0.058499999999999774 Q 0.14400000000000002 0.04799999999999982 0.1635 0.04799999999999982 Q 0.1815 0.04799999999999982 0.19575 0.057749999999999746 Q 0.21 0.0674999999999999 0.222 0.08324999999999982 Q 0.234 0.09899999999999975 0.243 0.11699999999999977 L 0.501 0.6149999999999999 L 0.759 0.11699999999999977 Q 0.7695 0.09899999999999975 0.78075 0.08324999999999982 Q 0.792 0.0674999999999999 0.807 0.057749999999999746 Q 0.8220000000000001 0.04799999999999982 0.8385 0.04799999999999982 Q 0.8595 0.04799999999999982 0.87375 0.058499999999999774 Q 0.888 0.06899999999999973 0.888 0.09599999999999986 L 0.888 1.1055 Q 0.888 1.1249999999999998 0.873 1.13475 Q 0.858 1.1444999999999999 0.8385 1.1444999999999999 Q 0.8205 1.1444999999999999 0.80475 1.13475 Q 0.789 1.1249999999999998 0.789 1.1055 L 0.789 0.26249999999999984 L 0.54 0.7334999999999998 Q 0.531 0.7499999999999998 0.5205 0.7574999999999998 Q 0.51 0.7649999999999999 0.4995 0.7649999999999999 Q 0.4905 0.7649999999999999 0.48 0.7582499999999999 Q 0.46950000000000003 0.7514999999999998 0.4605 0.7334999999999998 L 0.213 0.2579999999999998 L 0.213 1.1055 Q 0.213 1.1249999999999998 0.19725 1.13475 Q 0.1815 1.1444999999999999 0.1635 1.1444999999999999 M 1.138502197265625 1.4925 Q 1.119002197265625 1.4925 1.104752197265625 1.4805 Q 1.090502197265625 1.4685 1.090502197265625 1.4534999999999998 L 1.090502197265625 0.47099999999999986 Q 1.090502197265625 0.4544999999999998 1.104752197265625 0.44474999999999987 Q 1.119002197265625 0.43499999999999983 1.138502197265625 0.43499999999999983 Q 1.158002197265625 0.43499999999999983 1.171502197265625 0.44474999999999987 Q 1.185002197265625 0.4544999999999998 1.185002197265625 0.47099999999999986 L 1.185002197265625 0.5399999999999998 Q 1.210502197265625 0.49649999999999983 1.261502197265625 0.4612499999999998 Q 1.312502197265625 0.4259999999999998 1.3860021972656251 0.4259999999999998 Q 1.461002197265625 0.4259999999999998 1.521752197265625 0.46424999999999983 Q 1.582502197265625 0.5024999999999998 1.619252197265625 0.5654999999999999 Q 1.6560021972656251 0.6284999999999998 1.6560021972656251 0.7064999999999999 L 1.6560021972656251 0.8699999999999999 Q 1.6560021972656251 0.9434999999999998 1.619252197265625 1.0094999999999998 Q 1.582502197265625 1.0755 1.522502197265625 1.1152499999999999 Q 1.462502197265625 1.1549999999999998 1.390502197265625 1.1549999999999998 Q 1.321502197265625 1.1549999999999998 1.267502197265625 1.1204999999999998 Q 1.213502197265625 1.0859999999999999 1.188002197265625 1.0394999999999999 L 1.188002197265625 1.4534999999999998 Q 1.188002197265625 1.4685 1.173752197265625 1.4805 Q 1.159502197265625 1.4925 1.138502197265625 1.4925 M 1.372502197265625 1.065 Q 1.422002197265625 1.065 1.464002197265625 1.0372499999999998 Q 1.506002197265625 1.0094999999999998 1.532252197265625 0.9644999999999999 Q 1.558502197265625 0.9194999999999999 1.558502197265625 0.8699999999999999 L 1.558502197265625 0.7064999999999999 Q 1.558502197265625 0.6584999999999999 1.533002197265625 0.6149999999999999 Q 1.507502197265625 0.5714999999999998 1.464752197265625 0.5437499999999998 Q 1.422002197265625 0.5159999999999998 1.369502197265625 0.5159999999999998 Q 1.324502197265625 0.5159999999999998 1.283252197265625 0.5392499999999998 Q 1.242002197265625 0.5624999999999999 1.215002197265625 0.6044999999999998 Q 1.188002197265625 0.6464999999999999 1.188002197265625 0.7064999999999999 L 1.188002197265625 0.9164999999999999 Q 1.188002197265625 0.9389999999999998 1.212002197265625 0.9742499999999998 Q 1.236002197265625 1.0094999999999998 1.278002197265625 1.0372499999999998 Q 1.320002197265625 1.065 1.372502197265625 1.065 M 1.874972900390625 1.1444999999999999 Q 1.855472900390625 1.1444999999999999 1.842722900390625 1.134 Q 1.829972900390625 1.1235 1.829972900390625 1.1069999999999998 L 1.829972900390625 0.08399999999999985 Q 1.829972900390625 0.06899999999999973 1.842722900390625 0.058499999999999774 Q 1.855472900390625 0.04799999999999982 1.874972900390625 0.04799999999999982 L 2.140472900390625 0.04799999999999982 Q 2.228972900390625 0.04799999999999982 2.300222900390625 0.0794999999999999 Q 2.371472900390625 0.11099999999999977 2.4127229003906248 0.18149999999999988 Q 2.453972900390625 0.2519999999999998 2.453972900390625 0.3674999999999998 L 2.453972900390625 0.8234999999999999 Q 2.453972900390625 0.9404999999999999 2.4127229003906248 1.011 Q 2.371472900390625 1.0815 2.300222900390625 1.1129999999999998 Q 2.228972900390625 1.1444999999999999 2.140472900390625 1.1444999999999999 L 1.874972900390625 1.1444999999999999 M 1.928972900390625 1.053 L 2.140472900390625 1.053 Q 2.240972900390625 1.053 2.297972900390625 0.9974999999999998 Q 2.3549729003906252 0.9419999999999998 2.3549729003906252 0.8234999999999999 L 2.3549729003906252 0.3674999999999998 Q 2.3549729003906252 0.25049999999999983 2.297972900390625 0.19499999999999984 Q 2.240972900390625 0.13949999999999974 2.140472900390625 0.13949999999999974 L 1.928972900390625 0.13949999999999974 L 1.928972900390625 1.053 M 2.6924267578125 0.22499999999999987 Q 2.6654267578125 0.22499999999999987 2.6459267578125 0.20624999999999982 Q 2.6264267578125 0.18749999999999978 2.6264267578125 0.1619999999999998 Q 2.6264267578125 0.13649999999999984 2.6459267578125 0.11849999999999983 Q 2.6654267578125 0.10049999999999981 2.6924267578125 0.10049999999999981 Q 2.7194267578125 0.10049999999999981 2.7389267578125 0.11849999999999983 Q 2.7584267578125 0.13649999999999984 2.7584267578125 0.1619999999999998 Q 2.7584267578125 0.18749999999999978 2.7389267578125 0.20624999999999982 Q 2.7194267578125 0.22499999999999987 2.6924267578125 0.22499999999999987 M 2.6909267578125 1.1444999999999999 Q 2.6714267578125 1.1444999999999999 2.6571767578125 1.1324999999999998 Q 2.6429267578125 1.1204999999999998 2.6429267578125 1.1055 L 2.6429267578125 0.47099999999999986 Q 2.6429267578125 0.4544999999999998 2.6571767578125 0.44474999999999987 Q 2.6714267578125 0.43499999999999983 2.6909267578125 0.43499999999999983 Q 2.7119267578125 0.43499999999999983 2.7261767578125 0.44474999999999987 Q 2.7404267578125 0.4544999999999998 2.7404267578125 0.47099999999999986 L 2.7404267578125 1.1055 Q 2.7404267578125 1.1204999999999998 2.7261767578125 1.1324999999999998 Q 2.7119267578125 1.1444999999999999 2.6909267578125 1.1444999999999999 M 3.178465576171875 1.4925 Q 3.089965576171875 1.4925 3.021715576171875 1.4677499999999999 Q 2.953465576171875 1.4429999999999998 2.913715576171875 1.39875 Q 2.873965576171875 1.3544999999999998 2.873965576171875 1.293 Q 2.873965576171875 1.2269999999999999 2.912965576171875 1.188 Q 2.951965576171875 1.1489999999999998 3.001465576171875 1.1295 Q 2.965465576171875 1.1159999999999999 2.942215576171875 1.0927499999999999 Q 2.918965576171875 1.0695 2.918965576171875 1.0259999999999998 Q 2.918965576171875 0.9839999999999999 2.939965576171875 0.9592499999999998 Q 2.960965576171875 0.9344999999999999 2.993965576171875 0.9179999999999998 Q 2.953465576171875 0.8849999999999998 2.932465576171875 0.8362499999999998 Q 2.911465576171875 0.7874999999999999 2.911465576171875 0.7289999999999999 L 2.911465576171875 0.6719999999999998 Q 2.911465576171875 0.5999999999999999 2.942965576171875 0.5444999999999999 Q 2.974465576171875 0.4889999999999999 3.032965576171875 0.4574999999999998 Q 3.091465576171875 0.4259999999999998 3.169465576171875 0.4259999999999998 Q 3.221965576171875 0.4259999999999998 3.266965576171875 0.4424999999999998 Q 3.311965576171875 0.45899999999999985 3.344965576171875 0.4889999999999999 Q 3.367465576171875 0.4424999999999998 3.395965576171875 0.41849999999999987 Q 3.424465576171875 0.39449999999999985 3.451465576171875 0.39449999999999985 Q 3.473965576171875 0.39449999999999985 3.485215576171875 0.4072499999999999 Q 3.4964655761718753 0.4199999999999998 3.4964655761718753 0.4334999999999999 Q 3.4964655761718753 0.44699999999999984 3.488965576171875 0.4552499999999998 Q 3.481465576171875 0.4634999999999998 3.470965576171875 0.4664999999999998 Q 3.452965576171875 0.4694999999999998 3.429715576171875 0.4829999999999999 Q 3.406465576171875 0.49649999999999983 3.386965576171875 0.5309999999999998 Q 3.407965576171875 0.5594999999999999 3.418465576171875 0.5954999999999998 Q 3.428965576171875 0.6314999999999998 3.428965576171875 0.6719999999999998 L 3.428965576171875 0.7289999999999999 Q 3.428965576171875 0.7994999999999999 3.395965576171875 0.8564999999999998 Q 3.362965576171875 0.9134999999999999 3.303715576171875 0.9457499999999999 Q 3.244465576171875 0.9779999999999999 3.1679655761718752 0.9779999999999999 Q 3.103465576171875 0.9779999999999999 3.052465576171875 0.9524999999999999 Q 3.035965576171875 0.9614999999999998 3.020965576171875 0.9742499999999998 Q 3.005965576171875 0.9869999999999999 3.005965576171875 1.011 Q 3.005965576171875 1.0439999999999998 3.040465576171875 1.059 Q 3.074965576171875 1.0739999999999998 3.127465576171875 1.0799999999999998 Q 3.179965576171875 1.0859999999999999 3.239215576171875 1.0927499999999999 Q 3.298465576171875 1.0995 3.351715576171875 1.1175 Q 3.404965576171875 1.1355 3.438715576171875 1.1729999999999998 Q 3.4724655761718752 1.2105 3.4724655761718752 1.2794999999999999 Q 3.4724655761718752 1.3499999999999999 3.434215576171875 1.3972499999999999 Q 3.395965576171875 1.4445 3.329965576171875 1.4685 Q 3.263965576171875 1.4925 3.178465576171875 1.4925 M 3.176965576171875 1.4189999999999998 Q 3.271465576171875 1.4189999999999998 3.324715576171875 1.3815 Q 3.377965576171875 1.3439999999999999 3.377965576171875 1.2824999999999998 Q 3.377965576171875 1.2345 3.348715576171875 1.2097499999999999 Q 3.3194655761718748 1.1849999999999998 3.275215576171875 1.1744999999999999 Q 3.230965576171875 1.164 3.183715576171875 1.1594999999999998 Q 3.136465576171875 1.1549999999999998 3.101965576171875 1.1504999999999999 Q 3.049465576171875 1.1669999999999998 3.008965576171875 1.1985 Q 2.968465576171875 1.2299999999999998 2.968465576171875 1.2839999999999998 Q 2.968465576171875 1.3439999999999999 3.023965576171875 1.3815 Q 3.079465576171875 1.4189999999999998 3.176965576171875 1.4189999999999998 M 3.170965576171875 0.9044999999999999 Q 3.247465576171875 0.9044999999999999 3.290215576171875 0.8542499999999998 Q 3.332965576171875 0.8039999999999998 3.332965576171875 0.7289999999999999 L 3.332965576171875 0.6719999999999998 Q 3.332965576171875 0.5984999999999998 3.290215576171875 0.5489999999999998 Q 3.247465576171875 0.49949999999999983 3.169465576171875 0.49949999999999983 Q 3.091465576171875 0.49949999999999983 3.048715576171875 0.5489999999999998 Q 3.005965576171875 0.5984999999999998 3.005965576171875 0.6719999999999998 L 3.005965576171875 0.7274999999999998 Q 3.005965576171875 0.8024999999999998 3.049465576171875 0.8534999999999999 Q 3.092965576171875 0.9044999999999999 3.170965576171875 0.9044999999999999 M 3.656934814453125 0.22499999999999987 Q 3.629934814453125 0.22499999999999987 3.610434814453125 0.20624999999999982 Q 3.590934814453125 0.18749999999999978 3.590934814453125 0.1619999999999998 Q 3.590934814453125 0.13649999999999984 3.610434814453125 0.11849999999999983 Q 3.629934814453125 0.10049999999999981 3.656934814453125 0.10049999999999981 Q 3.683934814453125 0.10049999999999981 3.703434814453125 0.11849999999999983 Q 3.722934814453125 0.13649999999999984 3.722934814453125 0.1619999999999998 Q 3.722934814453125 0.18749999999999978 3.703434814453125 0.20624999999999982 Q 3.683934814453125 0.22499999999999987 3.656934814453125 0.22499999999999987 M 3.655434814453125 1.1444999999999999 Q 3.635934814453125 1.1444999999999999 3.621684814453125 1.1324999999999998 Q 3.607434814453125 1.1204999999999998 3.607434814453125 1.1055 L 3.607434814453125 0.47099999999999986 Q 3.607434814453125 0.4544999999999998 3.621684814453125 0.44474999999999987 Q 3.635934814453125 0.43499999999999983 3.655434814453125 0.43499999999999983 Q 3.676434814453125 0.43499999999999983 3.690684814453125 0.44474999999999987 Q 3.704934814453125 0.4544999999999998 3.704934814453125 0.47099999999999986 L 3.704934814453125 1.1055 Q 3.704934814453125 1.1204999999999998 3.690684814453125 1.1324999999999998 Q 3.676434814453125 1.1444999999999999 3.655434814453125 1.1444999999999999 M 4.1264736328125 1.1444999999999999 Q 4.0109736328125 1.1444999999999999 3.9494736328125 1.0919999999999999 Q 3.8879736328125 1.0394999999999999 3.8879736328125 0.9239999999999998 L 3.8879736328125 0.13349999999999973 Q 3.8879736328125 0.11699999999999977 3.9037236328125 0.10724999999999985 Q 3.9194736328125 0.09749999999999992 3.9359736328125 0.09749999999999992 Q 3.9554736328125 0.09749999999999992 3.9704736328125 0.10724999999999985 Q 3.9854736328125 0.11699999999999977 3.9854736328125 0.13349999999999973 L 3.9854736328125 0.43499999999999983 L 4.1804736328125 0.43499999999999983 Q 4.1954736328125 0.43499999999999983 4.2044736328125 0.44699999999999984 Q 4.2134736328125 0.45899999999999985 4.2134736328125 0.4754999999999998 Q 4.2134736328125 0.4919999999999999 4.2044736328125 0.5039999999999999 Q 4.1954736328125 0.5159999999999998 4.1804736328125 0.5159999999999998 L 3.9854736328125 0.5159999999999998 L 3.9854736328125 0.9239999999999998 Q 3.9854736328125 0.9974999999999998 4.0169736328125 1.0267499999999998 Q 4.0484736328125 1.0559999999999998 4.1264736328125 1.0559999999999998 L 4.1684736328125 1.0559999999999998 Q 4.1894736328125 1.0559999999999998 4.2007236328125 1.0687499999999999 Q 4.2119736328125 1.0815 4.2119736328125 1.0995 Q 4.2119736328125 1.1175 4.2007236328125 1.1309999999999998 Q 4.1894736328125 1.1444999999999999 4.1684736328125 1.1444999999999999 L 4.1264736328125 1.1444999999999999 M 4.490947998046875 1.1549999999999998 Q 4.406947998046875 1.1549999999999998 4.346947998046875 1.10625 Q 4.286947998046875 1.0574999999999999 4.286947998046875 0.9569999999999999 Q 4.286947998046875 0.8744999999999998 4.331197998046875 0.8302499999999998 Q 4.375447998046875 0.7859999999999998 4.454197998046875 0.7687499999999998 Q 4.532947998046875 0.7514999999999998 4.636447998046875 0.7514999999999998 L 4.712947998046875 0.7514999999999998 L 4.712947998046875 0.7154999999999998 Q 4.712947998046875 0.6674999999999998 4.695697998046875 0.6202499999999999 Q 4.678447998046875 0.5729999999999998 4.640197998046875 0.5422499999999998 Q 4.601947998046875 0.5114999999999998 4.535947998046875 0.5114999999999998 Q 4.486447998046875 0.5114999999999998 4.454947998046875 0.5219999999999998 Q 4.423447998046875 0.5324999999999999 4.405447998046875 0.5437499999999998 Q 4.387447998046875 0.5549999999999998 4.375447998046875 0.5549999999999998 Q 4.357447998046875 0.5549999999999998 4.346947998046875 0.5369999999999998 Q 4.336447998046875 0.5189999999999998 4.336447998046875 0.5024999999999998 Q 4.336447998046875 0.4829999999999999 4.367197998046875 0.4657499999999999 Q 4.397947998046875 0.4484999999999998 4.445197998046875 0.4372499999999998 Q 4.492447998046875 0.4259999999999998 4.538947998046875 0.4259999999999998 Q 4.639447998046875 0.4259999999999998 4.698697998046875 0.46724999999999983 Q 4.757947998046875 0.5084999999999998 4.784197998046875 0.5744999999999998 Q 4.810447998046875 0.6404999999999998 4.810447998046875 0.7154999999999998 L 4.810447998046875 1.1055 Q 4.810447998046875 1.1219999999999999 4.797697998046875 1.1332499999999999 Q 4.784947998046875 1.1444999999999999 4.762447998046875 1.1444999999999999 Q 4.744447998046875 1.1444999999999999 4.730947998046875 1.1332499999999999 Q 4.717447998046875 1.1219999999999999 4.717447998046875 1.1055 L 4.717447998046875 1.0394999999999999 Q 4.678447998046875 1.0829999999999997 4.622947998046875 1.1189999999999998 Q 4.567447998046875 1.1549999999999998 4.490947998046875 1.1549999999999998 M 4.514947998046875 1.0724999999999998 Q 4.564447998046875 1.0724999999999998 4.609447998046875 1.047 Q 4.654447998046875 1.0214999999999999 4.683697998046875 0.9847499999999998 Q 4.712947998046875 0.9479999999999998 4.712947998046875 0.9149999999999998 L 4.712947998046875 0.8189999999999998 L 4.649947998046875 0.8189999999999998 Q 4.582447998046875 0.8189999999999998 4.521697998046875 0.8272499999999998 Q 4.460947998046875 0.8354999999999999 4.422697998046875 0.8624999999999998 Q 4.384447998046875 0.8894999999999998 4.384447998046875 0.9479999999999998 Q 4.384447998046875 1.0124999999999997 4.422697998046875 1.0424999999999998 Q 4.460947998046875 1.0724999999999998 4.514947998046875 1.0724999999999998 M 5.051930419921875 1.1444999999999999 Q 5.032430419921875 1.1444999999999999 5.018180419921875 1.1324999999999998 Q 5.003930419921875 1.1204999999999998 5.003930419921875 1.1055 L 5.003930419921875 0.03599999999999981 Q 5.003930419921875 0.01949999999999985 5.018180419921875 0.009749999999999925 Q 5.032430419921875 -2.220446049250313e-16 5.051930419921875 -2.220446049250313e-16 Q 5.072930419921875 -2.220446049250313e-16 5.087180419921875 0.009749999999999925 Q 5.101430419921875 0.01949999999999985 5.101430419921875 0.03599999999999981 L 5.101430419921875 1.1055 Q 5.101430419921875 1.1204999999999998 5.087180419921875 1.1324999999999998 Q 5.072930419921875 1.1444999999999999 5.051930419921875 1.1444999999999999 M 5.570942138671875 1.1549999999999998 Q 5.474942138671875 1.1549999999999998 5.405942138671875 1.1257499999999998 Q 5.336942138671875 1.0964999999999998 5.300192138671875 1.05825 Q 5.263442138671875 1.0199999999999998 5.263442138671875 0.9929999999999999 Q 5.263442138671875 0.9809999999999999 5.270192138671875 0.9674999999999998 Q 5.276942138671875 0.9539999999999998 5.287442138671875 0.9457499999999999 Q 5.297942138671875 0.9374999999999998 5.308442138671875 0.9374999999999998 Q 5.323442138671875 0.9374999999999998 5.339192138671875 0.9562499999999998 Q 5.354942138671875 0.9749999999999999 5.381192138671875 0.9997499999999999 Q 5.407442138671875 1.0244999999999997 5.450942138671875 1.0432499999999998 Q 5.494442138671875 1.0619999999999998 5.564942138671875 1.0619999999999998 Q 5.635442138671875 1.0619999999999998 5.685692138671875 1.0387499999999998 Q 5.735942138671875 1.0154999999999998 5.762192138671875 0.9697499999999999 Q 5.788442138671875 0.9239999999999998 5.788442138671875 0.8549999999999999 Q 5.788442138671875 0.7829999999999999 5.761442138671875 0.7387499999999998 Q 5.734442138671875 0.6944999999999999 5.6901921386718755 0.6667499999999998 Q 5.645942138671875 0.6389999999999998 5.593442138671875 0.6187499999999998 Q 5.540942138671875 0.5984999999999998 5.487692138671875 0.5782499999999998 Q 5.434442138671875 0.5579999999999998 5.390192138671875 0.5272499999999999 Q 5.345942138671875 0.49649999999999983 5.318192138671875 0.4462499999999998 Q 5.290442138671875 0.3959999999999998 5.290442138671875 0.31799999999999984 Q 5.290442138671875 0.23549999999999982 5.320442138671875 0.18299999999999983 Q 5.350442138671875 0.13049999999999984 5.397692138671875 0.10049999999999981 Q 5.444942138671875 0.07049999999999979 5.500442138671875 0.057749999999999746 Q 5.555942138671875 0.04499999999999993 5.608442138671875 0.04499999999999993 Q 5.650442138671875 0.04499999999999993 5.694692138671875 0.05174999999999974 Q 5.738942138671875 0.058499999999999774 5.776442138671875 0.07049999999999979 Q 5.813942138671875 0.0824999999999998 5.837192138671875 0.09899999999999975 Q 5.860442138671875 0.11549999999999994 5.860442138671875 0.13649999999999984 Q 5.860442138671875 0.1469999999999998 5.855192138671875 0.15974999999999984 Q 5.849942138671875 0.17249999999999988 5.840942138671875 0.1822499999999998 Q 5.8319421386718755 0.19199999999999984 5.816942138671875 0.19199999999999984 Q 5.803442138671875 0.19199999999999984 5.779442138671875 0.17774999999999985 Q 5.755442138671875 0.16349999999999987 5.714192138671875 0.14924999999999988 Q 5.672942138671875 0.1349999999999998 5.606942138671875 0.1349999999999998 Q 5.552942138671875 0.1349999999999998 5.5026921386718755 0.15074999999999983 Q 5.452442138671875 0.16649999999999987 5.420942138671875 0.20399999999999985 Q 5.389442138671875 0.24149999999999983 5.389442138671875 0.30899999999999983 Q 5.389442138671875 0.3689999999999999 5.417192138671875 0.40574999999999983 Q 5.444942138671875 0.4424999999999998 5.489192138671875 0.46499999999999986 Q 5.533442138671875 0.4874999999999998 5.585942138671875 0.5062499999999999 Q 5.638442138671875 0.5249999999999998 5.691692138671875 0.5482499999999998 Q 5.744942138671875 0.5714999999999998 5.789192138671875 0.6067499999999998 Q 5.833442138671875 0.6419999999999998 5.860442138671875 0.6989999999999998 Q 5.887442138671875 0.7559999999999998 5.887442138671875 0.8459999999999999 Q 5.887442138671875 0.9524999999999999 5.846942138671875 1.0207499999999998 Q 5.8064421386718745 1.0889999999999997 5.735192138671875 1.1219999999999999 Q 5.663942138671875 1.1549999999999998 5.570942138671875 1.1549999999999998 M 6.323969970703125 1.1549999999999998 Q 6.244469970703125 1.1549999999999998 6.179969970703125 1.1159999999999999 Q 6.115469970703125 1.077 6.076469970703125 1.01175 Q 6.037469970703125 0.9464999999999999 6.037469970703125 0.8729999999999998 L 6.037469970703125 0.4724999999999998 Q 6.037469970703125 0.45899999999999985 6.052469970703125 0.44699999999999984 Q 6.067469970703125 0.43499999999999983 6.086969970703125 0.43499999999999983 Q 6.106469970703125 0.43499999999999983 6.120719970703125 0.44699999999999984 Q 6.134969970703125 0.45899999999999985 6.134969970703125 0.4724999999999998 L 6.134969970703125 0.8729999999999998 Q 6.134969970703125 0.9224999999999999 6.160469970703125 0.9659999999999999 Q 6.185969970703125 1.0094999999999998 6.227969970703125 1.0372499999999998 Q 6.269969970703125 1.065 6.322469970703125 1.065 Q 6.376469970703125 1.065 6.418469970703125 1.0379999999999998 Q 6.460469970703125 1.011 6.485219970703125 0.9667499999999999 Q 6.509969970703125 0.9224999999999999 6.509969970703125 0.8729999999999998 L 6.509969970703125 0.47099999999999986 Q 6.509969970703125 0.45599999999999985 6.5249699707031255 0.4454999999999998 Q 6.539969970703125 0.43499999999999983 6.559469970703125 0.43499999999999983 Q 6.581969970703125 0.43499999999999983 6.5947199707031245 0.4454999999999998 Q 6.607469970703125 0.45599999999999985 6.607469970703125 0.47099999999999986 L 6.607469970703125 0.8729999999999998 Q 6.607469970703125 0.9494999999999998 6.569219970703125 1.0132499999999998 Q 6.530969970703125 1.077 6.465719970703125 1.1159999999999999 Q 6.400469970703125 1.1549999999999998 6.323969970703125 1.1549999999999998 M 6.848927490234375 1.1444999999999999 Q 6.829427490234375 1.1444999999999999 6.815177490234375 1.1324999999999998 Q 6.800927490234375 1.1204999999999998 6.800927490234375 1.1055 L 6.800927490234375 0.03599999999999981 Q 6.800927490234375 0.01949999999999985 6.815177490234375 0.009749999999999925 Q 6.829427490234375 -2.220446049250313e-16 6.848927490234375 -2.220446049250313e-16 Q 6.869927490234375 -2.220446049250313e-16 6.884177490234375 0.009749999999999925 Q 6.898427490234375 0.01949999999999985 6.898427490234375 0.03599999999999981 L 6.898427490234375 1.1055 Q 6.898427490234375 1.1204999999999998 6.884177490234375 1.1324999999999998 Q 6.869927490234375 1.1444999999999999 6.848927490234375 1.1444999999999999 M 7.357439208984375 1.1549999999999998 Q 7.280939208984375 1.1549999999999998 7.216439208984375 1.1152499999999999 Q 7.151939208984375 1.0755 7.112189208984375 1.0102499999999999 Q 7.072439208984375 0.9449999999999998 7.072439208984375 0.8699999999999999 L 7.072439208984375 0.7064999999999999 Q 7.072439208984375 0.6314999999999998 7.111439208984375 0.5677499999999999 Q 7.150439208984375 0.5039999999999999 7.214939208984375 0.46499999999999986 Q 7.279439208984375 0.4259999999999998 7.357439208984375 0.4259999999999998 Q 7.433939208984375 0.4259999999999998 7.499189208984375 0.46424999999999983 Q 7.564439208984375 0.5024999999999998 7.6034392089843745 0.5654999999999999 Q 7.642439208984375 0.6284999999999998 7.642439208984375 0.7064999999999999 L 7.642439208984375 0.8699999999999999 Q 7.642439208984375 0.9434999999999998 7.6034392089843745 1.0094999999999998 Q 7.564439208984375 1.0755 7.499189208984375 1.1152499999999999 Q 7.433939208984375 1.1549999999999998 7.357439208984375 1.1549999999999998 M 7.357439208984375 1.065 Q 7.409939208984375 1.065 7.451939208984375 1.0372499999999998 Q 7.493939208984375 1.0094999999999998 7.519439208984375 0.9644999999999999 Q 7.544939208984375 0.9194999999999999 7.544939208984375 0.8699999999999999 L 7.544939208984375 0.7064999999999999 Q 7.544939208984375 0.6584999999999999 7.520189208984375 0.6149999999999999 Q 7.495439208984375 0.5714999999999998 7.452689208984375 0.5437499999999998 Q 7.409939208984375 0.5159999999999998 7.357439208984375 0.5159999999999998 Q 7.304939208984375 0.5159999999999998 7.262939208984375 0.5437499999999998 Q 7.220939208984375 0.5714999999999998 7.195439208984375 0.6149999999999999 Q 7.169939208984375 0.6584999999999999 7.169939208984375 0.7064999999999999 L 7.169939208984375 0.8699999999999999 Q 7.169939208984375 0.9194999999999999 7.195439208984375 0.9644999999999999 Q 7.220939208984375 1.0094999999999998 7.263689208984375 1.0372499999999998 Q 7.306439208984375 1.065 7.357439208984375 1.065 M 8.038430419921875 1.1444999999999999 Q 7.922930419921875 1.1444999999999999 7.861430419921875 1.0919999999999999 Q 7.799930419921875 1.0394999999999999 7.799930419921875 0.9239999999999998 L 7.799930419921875 0.13349999999999973 Q 7.799930419921875 0.11699999999999977 7.815680419921875 0.10724999999999985 Q 7.831430419921875 0.09749999999999992 7.847930419921875 0.09749999999999992 Q 7.867430419921875 0.09749999999999992 7.882430419921875 0.10724999999999985 Q 7.897430419921875 0.11699999999999977 7.897430419921875 0.13349999999999973 L 7.897430419921875 0.43499999999999983 L 8.092430419921875 0.43499999999999983 Q 8.107430419921876 0.43499999999999983 8.116430419921874 0.44699999999999984 Q 8.125430419921875 0.45899999999999985 8.125430419921875 0.4754999999999998 Q 8.125430419921875 0.4919999999999999 8.116430419921874 0.5039999999999999 Q 8.107430419921876 0.5159999999999998 8.092430419921875 0.5159999999999998 L 7.897430419921875 0.5159999999999998 L 7.897430419921875 0.9239999999999998 Q 7.897430419921875 0.9974999999999998 7.928930419921875 1.0267499999999998 Q 7.960430419921875 1.0559999999999998 8.038430419921875 1.0559999999999998 L 8.080430419921875 1.0559999999999998 Q 8.101430419921876 1.0559999999999998 8.112680419921874 1.0687499999999999 Q 8.123930419921875 1.0815 8.123930419921875 1.0995 Q 8.123930419921875 1.1175 8.112680419921874 1.1309999999999998 Q 8.101430419921876 1.1444999999999999 8.080430419921875 1.1444999999999999 L 8.038430419921875 1.1444999999999999 M 8.29490478515625 0.22499999999999987 Q 8.26790478515625 0.22499999999999987 8.24840478515625 0.20624999999999982 Q 8.22890478515625 0.18749999999999978 8.22890478515625 0.1619999999999998 Q 8.22890478515625 0.13649999999999984 8.24840478515625 0.11849999999999983 Q 8.26790478515625 0.10049999999999981 8.29490478515625 0.10049999999999981 Q 8.32190478515625 0.10049999999999981 8.34140478515625 0.11849999999999983 Q 8.36090478515625 0.13649999999999984 8.36090478515625 0.1619999999999998 Q 8.36090478515625 0.18749999999999978 8.34140478515625 0.20624999999999982 Q 8.32190478515625 0.22499999999999987 8.29490478515625 0.22499999999999987 M 8.29340478515625 1.1444999999999999 Q 8.27390478515625 1.1444999999999999 8.25965478515625 1.1324999999999998 Q 8.24540478515625 1.1204999999999998 8.24540478515625 1.1055 L 8.24540478515625 0.47099999999999986 Q 8.24540478515625 0.4544999999999998 8.25965478515625 0.44474999999999987 Q 8.27390478515625 0.43499999999999983 8.29340478515625 0.43499999999999983 Q 8.31440478515625 0.43499999999999983 8.32865478515625 0.44474999999999987 Q 8.34290478515625 0.4544999999999998 8.34290478515625 0.47099999999999986 L 8.34290478515625 1.1055 Q 8.34290478515625 1.1204999999999998 8.32865478515625 1.1324999999999998 Q 8.31440478515625 1.1444999999999999 8.29340478515625 1.1444999999999999 M 8.786943603515626 1.1549999999999998 Q 8.710443603515625 1.1549999999999998 8.645943603515626 1.1152499999999999 Q 8.581443603515625 1.0755 8.541693603515625 1.0102499999999999 Q 8.501943603515626 0.9449999999999998 8.501943603515626 0.8699999999999999 L 8.501943603515626 0.7064999999999999 Q 8.501943603515626 0.6314999999999998 8.540943603515625 0.5677499999999999 Q 8.579943603515625 0.5039999999999999 8.644443603515626 0.46499999999999986 Q 8.708943603515625 0.4259999999999998 8.786943603515626 0.4259999999999998 Q 8.863443603515625 0.4259999999999998 8.928693603515626 0.46424999999999983 Q 8.993943603515625 0.5024999999999998 9.032943603515625 0.5654999999999999 Q 9.071943603515624 0.6284999999999998 9.071943603515624 0.7064999999999999 L 9.071943603515624 0.8699999999999999 Q 9.071943603515624 0.9434999999999998 9.032943603515625 1.0094999999999998 Q 8.993943603515625 1.0755 8.928693603515626 1.1152499999999999 Q 8.863443603515625 1.1549999999999998 8.786943603515626 1.1549999999999998 M 8.786943603515626 1.065 Q 8.839443603515624 1.065 8.881443603515624 1.0372499999999998 Q 8.923443603515626 1.0094999999999998 8.948943603515625 0.9644999999999999 Q 8.974443603515624 0.9194999999999999 8.974443603515624 0.8699999999999999 L 8.974443603515624 0.7064999999999999 Q 8.974443603515624 0.6584999999999999 8.949693603515625 0.6149999999999999 Q 8.924943603515626 0.5714999999999998 8.882193603515624 0.5437499999999998 Q 8.839443603515624 0.5159999999999998 8.786943603515626 0.5159999999999998 Q 8.734443603515626 0.5159999999999998 8.692443603515626 0.5437499999999998 Q 8.650443603515624 0.5714999999999998 8.624943603515625 0.6149999999999999 Q 8.599443603515626 0.6584999999999999 8.599443603515626 0.7064999999999999 L 8.599443603515626 0.8699999999999999 Q 8.599443603515626 0.9194999999999999 8.624943603515625 0.9644999999999999 Q 8.650443603515624 1.0094999999999998 8.693193603515624 1.0372499999999998 Q 8.735943603515626 1.065 8.786943603515626 1.065 M 9.280434814453125 1.1444999999999999 Q 9.260934814453124 1.1444999999999999 9.246684814453126 1.1324999999999998 Q 9.232434814453125 1.1204999999999998 9.232434814453125 1.1055 L 9.232434814453125 0.47099999999999986 Q 9.232434814453125 0.4544999999999998 9.246684814453126 0.44474999999999987 Q 9.260934814453124 0.43499999999999983 9.280434814453125 0.43499999999999983 Q 9.299934814453126 0.43499999999999983 9.313434814453124 0.44474999999999987 Q 9.326934814453125 0.4544999999999998 9.326934814453125 0.47099999999999986 L 9.326934814453125 0.5399999999999998 Q 9.350934814453124 0.49649999999999983 9.401934814453124 0.4612499999999998 Q 9.452934814453124 0.4259999999999998 9.527934814453126 0.4259999999999998 Q 9.599934814453125 0.4259999999999998 9.660684814453125 0.46424999999999983 Q 9.721434814453126 0.5024999999999998 9.757434814453125 0.5654999999999999 Q 9.793434814453125 0.6284999999999998 9.793434814453125 0.7064999999999999 L 9.793434814453125 1.1055 Q 9.793434814453125 1.1249999999999998 9.778434814453124 1.13475 Q 9.763434814453126 1.1444999999999999 9.743934814453125 1.1444999999999999 Q 9.727434814453124 1.1444999999999999 9.711684814453125 1.13475 Q 9.695934814453125 1.1249999999999998 9.695934814453125 1.1055 L 9.695934814453125 0.7064999999999999 Q 9.695934814453125 0.6584999999999999 9.670434814453126 0.6149999999999999 Q 9.644934814453125 0.5714999999999998 9.602934814453125 0.5437499999999998 Q 9.560934814453125 0.5159999999999998 9.509934814453125 0.5159999999999998 Q 9.464934814453125 0.5159999999999998 9.423684814453125 0.5392499999999998 Q 9.382434814453125 0.5624999999999999 9.356184814453124 0.6044999999999998 Q 9.329934814453125 0.6464999999999999 9.329934814453125 0.7064999999999999 L 9.329934814453125 1.1055 Q 9.329934814453125 1.1204999999999998 9.315684814453125 1.1324999999999998 Q 9.301434814453126 1.1444999999999999 9.280434814453125 1.1444999999999999 M 10.166962646484375 1.1549999999999998 Q 10.096462646484374 1.1549999999999998 10.043962646484376 1.1369999999999998 Q 9.991462646484376 1.1189999999999998 9.961462646484375 1.09425 Q 9.931462646484375 1.0695 9.931462646484375 1.047 Q 9.931462646484375 1.0364999999999998 9.935962646484375 1.0267499999999998 Q 9.940462646484375 1.017 9.948712646484376 1.0094999999999998 Q 9.956962646484374 1.0019999999999998 9.965962646484375 1.0019999999999998 Q 9.982462646484375 1.0019999999999998 10.002712646484374 1.0192499999999998 Q 10.022962646484375 1.0364999999999998 10.059712646484375 1.0544999999999998 Q 10.096462646484374 1.0724999999999998 10.163962646484375 1.0724999999999998 Q 10.249462646484375 1.0724999999999998 10.283962646484374 1.04025 Q 10.318462646484376 1.0079999999999998 10.318462646484376 0.9659999999999999 Q 10.318462646484376 0.9164999999999999 10.292212646484375 0.8887499999999998 Q 10.265962646484375 0.8609999999999998 10.223212646484376 0.8452499999999998 Q 10.180462646484376 0.8294999999999999 10.133212646484376 0.8167499999999999 Q 10.085962646484376 0.8039999999999998 10.043212646484376 0.7837499999999998 Q 10.000462646484374 0.7634999999999998 9.974212646484375 0.7274999999999998 Q 9.947962646484376 0.6914999999999998 9.947962646484376 0.6299999999999999 Q 9.947962646484376 0.5819999999999999 9.971962646484375 0.5347499999999998 Q 9.995962646484376 0.4874999999999998 10.047712646484374 0.4567499999999999 Q 10.099462646484374 0.4259999999999998 10.184962646484376 0.4259999999999998 Q 10.234462646484374 0.4259999999999998 10.280962646484374 0.4364999999999999 Q 10.327462646484374 0.44699999999999984 10.356712646484375 0.46424999999999983 Q 10.385962646484375 0.4814999999999998 10.385962646484375 0.49949999999999983 Q 10.385962646484375 0.5069999999999998 10.380712646484374 0.5189999999999998 Q 10.375462646484374 0.5309999999999998 10.366462646484376 0.5407499999999998 Q 10.357462646484375 0.5504999999999999 10.345462646484375 0.5504999999999999 Q 10.333462646484374 0.5504999999999999 10.313212646484375 0.5392499999999998 Q 10.292962646484375 0.5279999999999998 10.261462646484375 0.5182499999999999 Q 10.229962646484376 0.5084999999999998 10.186462646484374 0.5084999999999998 Q 10.132462646484376 0.5084999999999998 10.099462646484374 0.5279999999999998 Q 10.066462646484375 0.5474999999999999 10.051462646484374 0.5737499999999999 Q 10.036462646484376 0.5999999999999999 10.036462646484376 0.6254999999999998 Q 10.036462646484376 0.6689999999999998 10.063462646484375 0.6914999999999998 Q 10.090462646484376 0.7139999999999999 10.133212646484376 0.7282499999999998 Q 10.175962646484376 0.7424999999999998 10.223212646484376 0.7552499999999999 Q 10.270462646484376 0.7679999999999998 10.313212646484375 0.7904999999999999 Q 10.355962646484375 0.8129999999999998 10.382212646484374 0.8534999999999999 Q 10.408462646484375 0.8939999999999999 10.408462646484375 0.9614999999999998 Q 10.408462646484375 1.0499999999999998 10.345462646484375 1.1024999999999998 Q 10.282462646484374 1.1549999999999998 10.166962646484375 1.1549999999999998" fill="#173054" fill-rule="nonzero"></path></g><g><path d=" M 0.10689655172413792 1.9710206896551723 Q 0.10689655172413792 1.9891241379310345 0.11896551724137931 2.0050724137931035 Q 0.13103448275862067 2.021020689655172 0.15 2.031365517241379 Q 0.16896551724137931 2.041710344827586 0.19310344827586207 2.0494689655172413 Q 0.21724137931034482 2.0572275862068965 0.2439655172413793 2.065848275862069 Q 0.2706896551724138 2.0744689655172412 0.296551724137931 2.0848137931034483 Q 0.32241379310344825 2.095158620689655 0.3413793103448276 2.1106758620689656 Q 0.38275862068965516 2.1442965517241377 0.38275862068965516 2.202055172413793 Q 0.38275862068965516 2.229641379310345 0.36982758620689654 2.254210344827586 Q 0.3568965517241379 2.2787793103448277 0.3336206896551724 2.295158620689655 Q 0.28620689655172415 2.3296413793103445 0.20689655172413793 2.3296413793103445 Q 0.13189655172413792 2.3296413793103445 0.075 2.291710344827586 Q 0.0396551724137931 2.2692965517241377 0.0396551724137931 2.2537793103448274 Q 0.0396551724137931 2.2399862068965515 0.05344827586206896 2.2313655172413793 Q 0.056896551724137934 2.2279172413793105 0.06206896551724138 2.2279172413793105 Q 0.06724137931034482 2.2279172413793105 0.07327586206896551 2.2322275862068963 Q 0.0793103448275862 2.2365379310344826 0.0875 2.2425724137931033 Q 0.09568965517241379 2.248606896551724 0.10818965517241379 2.2559344827586205 Q 0.12068965517241378 2.263262068965517 0.13448275862068965 2.2692965517241377 Q 0.16896551724137931 2.2830896551724136 0.20172413793103447 2.2822275862068966 Q 0.23448275862068965 2.281365517241379 0.2543103448275862 2.277055172413793 Q 0.27413793103448275 2.272744827586207 0.2896551724137931 2.2624 Q 0.32241379310344825 2.2399862068965515 0.3232758620689655 2.205503448275862 Q 0.3232758620689655 2.1624 0.2810344827586207 2.1391241379310344 Q 0.26206896551724135 2.1287793103448274 0.23836206896551723 2.120589655172414 Q 0.2146551724137931 2.1124 0.18836206896551724 2.104641379310345 Q 0.16206896551724137 2.0968827586206897 0.13620689655172413 2.0856758620689653 Q 0.1103448275862069 2.0744689655172412 0.09051724137931035 2.058951724137931 Q 0.04827586206896552 2.0253310344827584 0.04827586206896552 1.9727448275862067 Q 0.04827586206896552 1.9451586206896552 0.06163793103448276 1.9210206896551725 Q 0.075 1.8968827586206896 0.09827586206896552 1.8813655172413792 Q 0.14310344827586208 1.8494689655172414 0.2103448275862069 1.8486068965517242 Q 0.30775862068965515 1.8486068965517242 0.36724137931034484 1.9115379310344827 Q 0.3706896551724138 1.9167103448275862 0.3706896551724138 1.9231758620689654 Q 0.3706896551724138 1.9296413793103446 0.37025862068965515 1.933951724137931 Q 0.36982758620689654 1.9382620689655172 0.36551724137931035 1.9425724137931033 Q 0.3594827586206896 1.9503310344827587 0.34956896551724137 1.9503310344827587 Q 0.3396551724137931 1.9503310344827587 0.328448275862069 1.9373999999999998 Q 0.3 1.9167103448275862 0.2827586206896552 1.9106758620689654 Q 0.2482758620689655 1.8968827586206896 0.21551724137931033 1.8968827586206896 Q 0.1732758620689655 1.8968827586206896 0.14310344827586208 1.9141241379310343 Q 0.10689655172413792 1.9348137931034481 0.10689655172413792 1.9710206896551723 M 0.7409280711206896 2.0572275862068965 Q 0.7823073814655173 1.9891241379310345 0.8598935883620689 1.9891241379310345 Q 0.9400660021551723 1.9891241379310345 0.9667901400862069 2.056365517241379 Q 0.9762728987068965 2.0813655172413794 0.9762728987068965 2.1141241379310345 L 0.9762728987068965 2.298606896551724 Q 0.9762728987068965 2.3106758620689654 0.9680832435344827 2.316710344827586 Q 0.959893588362069 2.322744827586207 0.9504108297413792 2.322744827586207 Q 0.9400660021551723 2.322744827586207 0.9318763469827586 2.3162793103448274 Q 0.9236866918103448 2.3098137931034484 0.9236866918103448 2.298606896551724 L 0.9236866918103448 2.1106758620689656 Q 0.9236866918103448 2.0710206896551724 0.9012728987068965 2.048606896551724 Q 0.8805832435344827 2.0296413793103447 0.8478246228448275 2.0296413793103447 Q 0.7823073814655173 2.0296413793103447 0.7590315193965517 2.083089655172414 Q 0.749548760775862 2.1029172413793105 0.749548760775862 2.1313655172413792 L 0.749548760775862 2.298606896551724 Q 0.749548760775862 2.3106758620689654 0.7413591056034483 2.316710344827586 Q 0.7331694504310344 2.322744827586207 0.7236866918103448 2.322744827586207 Q 0.7133418642241378 2.322744827586207 0.7051522090517242 2.3162793103448274 Q 0.6969625538793103 2.3098137931034484 0.6969625538793103 2.298606896551724 L 0.6969625538793103 2.1106758620689656 Q 0.6969625538793103 2.0710206896551724 0.6754108297413792 2.048606896551724 Q 0.6547211745689655 2.0296413793103447 0.627997036637931 2.0296413793103447 Q 0.6012728987068965 2.0296413793103447 0.5840315193965517 2.0356758620689654 Q 0.5667901400862069 2.041710344827586 0.552997036637931 2.055503448275862 Q 0.5254108297413793 2.083089655172414 0.5236866918103448 2.1330896551724137 L 0.5236866918103448 2.298606896551724 Q 0.5236866918103448 2.3106758620689654 0.5150660021551724 2.316710344827586 Q 0.5064453124999999 2.322744827586207 0.4969625538793103 2.322744827586207 Q 0.4874797952586206 2.322744827586207 0.47885910560344824 2.3162793103448274 Q 0.4702384159482758 2.3098137931034484 0.4702384159482758 2.298606896551724 L 0.4702384159482758 2.020158620689655 Q 0.4702384159482758 2.008951724137931 0.47885910560344824 2.002055172413793 Q 0.4874797952586206 1.9951586206896552 0.49523841594827583 1.9951586206896552 Q 0.502997036637931 1.9951586206896552 0.5073073814655172 1.9973137931034481 Q 0.5116177262931034 1.9994689655172413 0.5150660021551724 2.002055172413793 Q 0.5236866918103448 2.008951724137931 0.5236866918103448 2.0192965517241377 L 0.5236866918103448 2.0503310344827588 Q 0.5357556573275861 2.021020689655172 0.5676522090517241 2.004641379310345 Q 0.5961004849137931 1.9891241379310345 0.6340315193965517 1.9891241379310345 Q 0.6926522090517241 1.9891241379310345 0.7236866918103448 2.026193103448276 Q 0.7340315193965516 2.0399862068965517 0.7409280711206896 2.0572275862068965 M 1.2335916453394398 2.123606896551724 Q 1.251695093615302 2.123606896551724 1.269798541891164 2.1244689655172415 L 1.269798541891164 2.0968827586206897 Q 1.269798541891164 2.0296413793103447 1.194798541891164 2.0296413793103447 Q 1.1611778522359915 2.0296413793103447 1.1456606108566811 2.0356758620689654 Q 1.1180744039601294 2.0460206896551725 1.1060054384428881 2.053348275862069 Q 1.0939364729256467 2.0606758620689654 1.0870399212015087 2.0606758620689654 Q 1.0801433694773708 2.0606758620689654 1.07410888671875 2.055503448275862 Q 1.0680744039601295 2.0503310344827588 1.0680744039601295 2.041710344827586 Q 1.0680744039601295 2.034813793103448 1.0758330246497847 2.0279172413793103 Q 1.116350266029095 1.9891241379310345 1.1956606108566812 1.9891241379310345 Q 1.287039921201509 1.9891241379310345 1.312901990167026 2.0503310344827588 Q 1.3215226798221984 2.0718827586206894 1.3215226798221984 2.1003310344827586 L 1.319798541891164 2.2994689655172413 Q 1.319798541891164 2.3106758620689654 1.3120399212015088 2.316710344827586 Q 1.3042813005118536 2.322744827586207 1.294798541891164 2.322744827586207 Q 1.2853157832704742 2.322744827586207 1.277557162580819 2.3175724137931035 Q 1.269798541891164 2.3124 1.269798541891164 2.3003310344827583 L 1.269798541891164 2.2692965517241377 Q 1.24910888671875 2.314124137931034 1.1956606108566812 2.3253310344827587 Q 1.1792813005118536 2.3296413793103445 1.1585916453394398 2.3296413793103445 Q 1.137901990167026 2.3296413793103445 1.1176433694773709 2.3236068965517243 Q 1.0973847487877157 2.3175724137931035 1.0818675074084054 2.3046413793103446 Q 1.0499709556842673 2.2779172413793103 1.0499709556842673 2.2322275862068963 Q 1.0499709556842673 2.123606896551724 1.2335916453394398 2.123606896551724 M 1.269798541891164 2.1624 Q 1.256005438442888 2.1641241379310343 1.237901990167026 2.1641241379310343 Q 1.2197985418911639 2.1641241379310343 1.2008330246497847 2.164555172413793 Q 1.1818675074084053 2.1649862068965517 1.1646261280980605 2.1688655172413793 Q 1.1473847487877156 2.172744827586207 1.1335916453394397 2.180503448275862 Q 1.1042813005118537 2.1960206896551724 1.102557162580819 2.2313655172413793 Q 1.102557162580819 2.258951724137931 1.1249709556842673 2.2744689655172414 Q 1.1422123349946123 2.2882620689655173 1.1741088867187501 2.2891241379310343 Q 1.212901990167026 2.2891241379310343 1.241350266029095 2.2641241379310344 Q 1.2672123349946123 2.2399862068965515 1.269798541891164 2.191710344827586 L 1.269798541891164 2.1624 M 1.4736605940193968 2.0503310344827588 Q 1.4943502491918106 1.9891241379310345 1.564177835398707 1.9891241379310345 Q 1.5771088698814657 1.9891241379310345 1.583574387122845 1.996451724137931 Q 1.5900399043642244 2.0037793103448274 1.5900399043642244 2.0119689655172412 Q 1.5900399043642244 2.020158620689655 1.583574387122845 2.0274862068965516 Q 1.5771088698814657 2.034813793103448 1.559867490571121 2.034813793103448 Q 1.542626111260776 2.034813793103448 1.5253847319504312 2.041710344827586 Q 1.5081433526400865 2.048606896551724 1.4969364560883622 2.061537931034483 Q 1.4736605940193968 2.0899862068965516 1.4736605940193968 2.1365379310344825 L 1.4736605940193968 2.298606896551724 Q 1.4736605940193968 2.3106758620689654 1.4650399043642244 2.316710344827586 Q 1.456419214709052 2.322744827586207 1.449522662984914 2.322744827586207 Q 1.4426261112607761 2.322744827586207 1.4383157664331898 2.321451724137931 Q 1.4340054216056037 2.320158620689655 1.4296950767780174 2.315848275862069 Q 1.4219364560883623 2.3106758620689654 1.4219364560883623 2.298606896551724 L 1.4219364560883623 2.021020689655172 Q 1.4219364560883623 2.009813793103448 1.4296950767780174 2.0024862068965517 Q 1.4374536974676726 1.9951586206896552 1.4490916285021553 1.9951586206896552 Q 1.460729559536638 1.9951586206896552 1.4671950767780175 2.0024862068965517 Q 1.4736605940193968 2.009813793103448 1.4736605940193968 2.021020689655172 L 1.4736605940193968 2.0503310344827588 M 1.8284161797885239 2.3037793103448276 Q 1.8284161797885239 2.3296413793103445 1.7672092832367998 2.3296413793103445 Q 1.721519628064386 2.3296413793103445 1.7025541108230067 2.3046413793103446 Q 1.681864455650593 2.2779172413793103 1.6801403177195584 2.216710344827586 L 1.6801403177195584 2.0356758620689654 L 1.6422092832367998 2.0356758620689654 Q 1.631864455650593 2.0356758620689654 1.6258299728919723 2.029210344827586 Q 1.6197954901333516 2.022744827586207 1.6197954901333516 2.015848275862069 Q 1.6197954901333516 2.008951724137931 1.624967903926455 2.002055172413793 Q 1.6301403177195586 1.9951586206896552 1.6422092832367998 1.9951586206896552 L 1.6835885935816275 1.9951586206896552 L 1.6870368694436964 1.902055172413793 Q 1.688761007374731 1.8917103448275863 1.6965196280643862 1.886106896551724 Q 1.7042782487540413 1.880503448275862 1.7128989384092137 1.880503448275862 Q 1.721519628064386 1.880503448275862 1.7275541108230068 1.8856758620689655 Q 1.7335885935816275 1.8908482758620688 1.7335885935816275 1.902055172413793 L 1.7335885935816275 1.9951586206896552 L 1.7930713522023172 1.9951586206896552 Q 1.803416179788524 1.9951586206896552 1.809019628064386 2.002055172413793 Q 1.8146230763402482 2.008951724137931 1.8146230763402482 2.015848275862069 Q 1.8146230763402482 2.0244689655172414 1.809019628064386 2.0300724137931034 Q 1.803416179788524 2.0356758620689654 1.7930713522023172 2.0356758620689654 L 1.7335885935816275 2.0356758620689654 L 1.7335885935816275 2.1882620689655172 Q 1.7335885935816275 2.252055172413793 1.7378989384092136 2.26541724137931 Q 1.7422092832368 2.2787793103448277 1.7516920418574895 2.283951724137931 Q 1.761174800478179 2.2891241379310343 1.774967903926455 2.2891241379310343 L 1.8085885935816275 2.286537931034483 Q 1.818071352202317 2.286537931034483 1.8232437659954206 2.292572413793103 Q 1.8284161797885239 2.298606896551724 1.8284161797885239 2.3037793103448276 M 2.4525406409954207 2.286537931034483 Q 2.4534027099609377 2.291710344827586 2.4534027099609377 2.2968827586206895 Q 2.4534027099609377 2.302055172413793 2.4508165030643863 2.3072275862068965 Q 2.4482302961678344 2.3124 2.443919951340248 2.3149862068965517 Q 2.435299261685076 2.322744827586207 2.424954434098869 2.322744827586207 Q 2.4042647789264553 2.322744827586207 2.397368227202317 2.3046413793103446 L 2.3551268478919725 2.2003310344827587 L 2.122368227202317 2.2003310344827587 L 2.0809889168574895 2.3046413793103446 Q 2.074954434098869 2.322744827586207 2.056850985823007 2.322744827586207 Q 2.038747537547145 2.322744827586207 2.0292647789264553 2.3072275862068965 Q 2.0266785720299034 2.302055172413793 2.0266785720299034 2.297744827586207 Q 2.0266785720299034 2.2934344827586206 2.0292647789264553 2.286537931034483 L 2.185299261685076 1.9037793103448275 Q 2.2025406409954207 1.8606758620689654 2.224954434098869 1.8546413793103447 Q 2.2309889168574895 1.8537793103448275 2.2404716754781795 1.852055172413793 Q 2.2577130547885242 1.852055172413793 2.2663337444436964 1.8598137931034482 Q 2.2801268478919723 1.8701586206896552 2.293919951340248 1.9037793103448275 L 2.4525406409954207 2.286537931034483 M 2.138747537547145 2.1546413793103447 L 2.339609606512662 2.1546413793103447 L 2.2387475375471446 1.9011931034482759 L 2.138747537547145 2.1546413793103447 M 2.7547008645945583 2.2684344827586207 Q 2.711597416318696 2.3296413793103445 2.6374594852842135 2.3296413793103445 Q 2.570218105973869 2.3296413793103445 2.53228707149111 2.276193103448276 Q 2.499528450801455 2.2279172413793105 2.499528450801455 2.158951724137931 Q 2.499528450801455 2.0434344827586206 2.5762525887324896 2.0037793103448274 Q 2.6021146576980065 1.9891241379310345 2.6284077611462826 1.9891241379310345 Q 2.6547008645945587 1.9891241379310345 2.6719422439049034 1.9921413793103446 Q 2.689183623215248 1.9951586206896552 2.7047008645945585 2.0037793103448274 Q 2.7374594852842136 2.020158620689655 2.7547008645945583 2.048606896551724 L 2.7547008645945583 1.8779172413793104 Q 2.7547008645945583 1.8649862068965517 2.763321554249731 1.8593827586206895 Q 2.7719422439049035 1.8537793103448275 2.78228707149111 1.8537793103448275 Q 2.792631899077317 1.8537793103448275 2.8003905197669723 1.8593827586206895 Q 2.8081491404566274 1.8649862068965517 2.8081491404566274 1.8779172413793104 L 2.8081491404566274 2.298606896551724 Q 2.8081491404566274 2.3106758620689654 2.799528450801455 2.316710344827586 Q 2.7909077611462827 2.322744827586207 2.7840112094221445 2.322744827586207 Q 2.777114657698007 2.322744827586207 2.772373278387662 2.321451724137931 Q 2.767631899077317 2.320158620689655 2.763321554249731 2.315848275862069 Q 2.7547008645945583 2.3098137931034484 2.7547008645945583 2.298606896551724 L 2.7547008645945583 2.2684344827586207 M 2.6478043128704205 2.2891241379310343 Q 2.752976726663524 2.2891241379310343 2.752976726663524 2.1537793103448273 Q 2.752976726663524 2.066710344827586 2.700390519766972 2.0399862068965517 Q 2.6805629335600756 2.0296413793103447 2.652976726663524 2.0296413793103447 Q 2.6253905197669725 2.0296413793103447 2.6072870714911103 2.04041724137931 Q 2.589183623215248 2.0511931034482758 2.5771146576980066 2.069296551724138 Q 2.5555629335600756 2.1029172413793105 2.5555629335600756 2.1546413793103447 Q 2.5555629335600756 2.2313655172413793 2.5917698301118 2.2675724137931033 Q 2.6124594852842136 2.2891241379310343 2.6478043128704205 2.2891241379310343 M 3.0206571381667566 2.0296413793103447 Q 2.9456571381667565 2.0296413793103447 2.947381276097791 2.077055172413793 Q 2.947381276097791 2.1072275862068963 2.990484724373653 2.118434482758621 Q 3.0051398967874463 2.1227448275862066 3.0219502416150323 2.126193103448276 Q 3.038760586442619 2.129641379310345 3.0585881726495154 2.1343827586206894 Q 3.0784157588564116 2.1391241379310344 3.0991054140288257 2.1468827586206896 Q 3.128415758856412 2.155503448275862 3.144364034718481 2.175762068965517 Q 3.1603123105805495 2.1960206896551724 3.1603123105805495 2.224468965517241 Q 3.1603123105805495 2.276193103448276 3.1163467933391704 2.3046413793103446 Q 3.076691620925377 2.330503448275862 3.0163467933391703 2.3296413793103445 Q 2.971519207132274 2.3296413793103445 2.9284157588564117 2.314124137931034 Q 2.911174379546067 2.3072275862068965 2.90082955195986 2.297744827586207 Q 2.8904847243736533 2.2882620689655173 2.8904847243736533 2.2796413793103447 Q 2.8904847243736533 2.271020689655172 2.8960881726495153 2.265848275862069 Q 2.9016916209253774 2.2606758620689655 2.9094502416150325 2.2606758620689655 Q 2.9172088623046877 2.2606758620689655 2.927122655408136 2.264986206896552 Q 2.9370364485115843 2.2692965517241377 2.9525536898908946 2.2744689655172414 Q 2.992208862304688 2.2891241379310343 3.0163467933391703 2.2891241379310343 Q 3.0404847243736532 2.2891241379310343 3.055139896787446 2.286106896551724 Q 3.0697950692012395 2.2830896551724136 3.081864034718481 2.276193103448276 Q 3.107726103683998 2.258951724137931 3.107726103683998 2.2313655172413793 Q 3.107726103683998 2.2115379310344827 3.095226103683998 2.200762068965517 Q 3.082726103683998 2.1899862068965517 3.06332955195986 2.183951724137931 Q 3.043933000235722 2.17791724137931 3.024967482994343 2.173606896551724 Q 3.0060019657529633 2.169296551724138 2.987036448511584 2.1649862068965517 Q 2.968070931270205 2.1606758620689654 2.95082955195986 2.1546413793103447 Q 2.9335881726495154 2.148606896551724 2.921519207132274 2.138262068965517 Q 2.8922088623046878 2.1175724137931033 2.8922088623046878 2.0796413793103445 Q 2.8922088623046878 2.031365517241379 2.932726103683998 2.009813793103448 Q 2.9663467933391705 1.9891241379310345 3.0215192071322736 1.9891241379310345 Q 3.0775536898908946 1.9891241379310345 3.111174379546067 2.005503448275862 Q 3.139622655408136 2.020158620689655 3.139622655408136 2.0382620689655173 Q 3.139622655408136 2.045158620689655 3.134019207132274 2.0494689655172413 Q 3.128415758856412 2.0537793103448276 3.1215192071322737 2.0537793103448276 Q 3.1085881726495153 2.0537793103448276 3.102122655408136 2.0494689655172413 Q 3.0956571381667564 2.045158620689655 3.087898517477101 2.0408482758620687 Q 3.080139896787446 2.0365379310344824 3.0697950692012395 2.034813793103448 Q 3.0508295519598603 2.0296413793103447 3.0206571381667566 2.0296413793103447 M 3.273656805630388 2.402055172413793 L 3.2271050814924567 2.402055172413793 L 3.2581395642510778 2.2624 L 3.3227947366648705 2.2624 L 3.273656805630388 2.402055172413793 M 3.6227941052667023 1.880503448275862 Q 3.6227941052667023 1.8701586206896552 3.628828588025323 1.8641241379310345 Q 3.6391734156115296 1.8537793103448275 3.651242381128771 1.852055172413793 L 3.802966519059806 1.852055172413793 Q 3.865897553542564 1.852055172413793 3.906414794921875 1.8856758620689655 Q 3.9460699673356676 1.9175724137931034 3.9460699673356676 1.9710206896551723 Q 3.9460699673356676 2.009813793103448 3.921932036301185 2.0382620689655173 Q 3.896069967335668 2.0675724137931035 3.8555527259563576 2.077055172413793 L 3.8555527259563576 2.07791724137931 Q 3.933138932852909 2.091710344827586 3.958138932852909 2.152055172413793 Q 3.9650354845770472 2.1710206896551725 3.9650354845770472 2.195158620689655 Q 3.9650354845770472 2.219296551724138 3.957276863887392 2.2425724137931033 Q 3.949518243197737 2.265848275862069 3.9305527259563573 2.2830896551724136 Q 3.887449277680495 2.322744827586207 3.8090010018184266 2.322744827586207 L 3.651242381128771 2.322744827586207 Q 3.6408975535425645 2.322744827586207 3.6331389328529093 2.315848275862069 Q 3.6227941052667023 2.3072275862068965 3.6227941052667023 2.294296551724138 L 3.6227941052667023 1.880503448275862 M 3.6796906569908403 2.2779172413793103 L 3.778828588025323 2.2779172413793103 Q 3.8443458294046335 2.2779172413793103 3.871069967335668 2.258951724137931 Q 3.90469065699084 2.238262068965517 3.90469065699084 2.1899862068965517 Q 3.90469065699084 2.1141241379310345 3.815035484577047 2.1037793103448275 Q 3.7883113466460125 2.102055172413793 3.75469065699084 2.102055172413793 L 3.6796906569908403 2.102055172413793 L 3.6796906569908403 2.2779172413793103 M 3.886587208714978 1.9761931034482758 Q 3.886587208714978 1.8968827586206896 3.7771044500942885 1.898606896551724 L 3.6796906569908403 1.898606896551724 L 3.6796906569908403 2.058951724137931 L 3.7779665190598055 2.058951724137931 Q 3.850380312163254 2.058951724137931 3.8771044500942886 2.014986206896552 Q 3.886587208714978 1.9994689655172413 3.886587208714978 1.9761931034482758 M 4.128379558694774 1.8813655172413792 Q 4.128379558694774 1.8951586206896551 4.118896800074084 1.9037793103448275 Q 4.109414041453395 1.9123999999999999 4.092172662143049 1.9123999999999999 Q 4.074931282832705 1.9123999999999999 4.065448524212015 1.9037793103448275 Q 4.055965765591325 1.8951586206896551 4.055965765591325 1.8813655172413792 Q 4.055965765591325 1.8692965517241378 4.065448524212015 1.8606758620689654 Q 4.074931282832705 1.852055172413793 4.092603696625808 1.852055172413793 Q 4.110276110418912 1.852055172413793 4.1193278345568425 1.8606758620689654 Q 4.128379558694774 1.8692965517241378 4.128379558694774 1.8813655172413792 M 4.0663105931775325 2.022744827586207 Q 4.0663105931775325 2.009813793103448 4.074931282832705 2.0024862068965517 Q 4.083551972487877 1.9951586206896552 4.090448524212015 1.9951586206896552 Q 4.097345075936153 1.9951586206896552 4.1016554207637395 1.9973137931034481 Q 4.105965765591326 1.9994689655172413 4.110276110418912 2.0037793103448274 Q 4.119758869039601 2.009813793103448 4.119758869039601 2.022744827586207 L 4.119758869039601 2.2968827586206895 Q 4.119758869039601 2.3098137931034484 4.111138179384429 2.3162793103448274 Q 4.102517489729256 2.322744827586207 4.092172662143049 2.322744827586207 Q 4.081827834556843 2.322744827586207 4.074069213867188 2.3162793103448274 Q 4.0663105931775325 2.3098137931034484 4.0663105931775325 2.2968827586206895 L 4.0663105931775325 2.022744827586207 M 4.353820064150054 2.030503448275862 Q 4.257268340012123 2.030503448275862 4.257268340012123 2.158951724137931 Q 4.257268340012123 2.219296551724138 4.287440753805226 2.2537793103448274 Q 4.313302822770744 2.283951724137931 4.354682133115571 2.284813793103448 Q 4.396923512425916 2.284813793103448 4.426233857253503 2.2529172413793104 Q 4.457268340012123 2.219296551724138 4.457268340012123 2.1606758620689654 Q 4.457268340012123 2.072744827586207 4.40209592621902 2.041710344827586 Q 4.383130408977641 2.030503448275862 4.353820064150054 2.030503448275862 M 4.3400269607017785 1.9891241379310345 Q 4.424509719322468 1.9891241379310345 4.458992477943157 2.0537793103448276 L 4.458992477943157 2.0175724137931033 Q 4.460716615874192 2.0072275862068967 4.46761316759833 2.001193103448276 Q 4.474509719322468 1.9951586206896552 4.483992477943158 1.9951586206896552 Q 4.493475236563847 1.9951586206896552 4.501233857253503 2.002055172413793 Q 4.508992477943158 2.008951724137931 4.508992477943158 2.020158620689655 L 4.508992477943158 2.3296413793103445 Q 4.508992477943158 2.3968827586206896 4.465889029667295 2.4296413793103446 Q 4.427095926219019 2.4606758620689653 4.353820064150054 2.4606758620689653 Q 4.288302822770744 2.4606758620689653 4.255544202081088 2.4382620689655172 Q 4.229682133115571 2.419296551724138 4.229682133115571 2.4072275862068966 Q 4.229682133115571 2.398606896551724 4.235285581391434 2.393003448275862 Q 4.240889029667295 2.3874 4.248216615874192 2.3874 Q 4.255544202081088 2.3874 4.262440753805227 2.3921413793103445 Q 4.269337305529365 2.3968827586206896 4.278820064150054 2.401193103448276 Q 4.288302822770744 2.405503448275862 4.297785581391434 2.408951724137931 Q 4.322785581391433 2.417572413793103 4.349078684839709 2.417572413793103 Q 4.3753717882879855 2.417572413793103 4.394768340012123 2.4132620689655173 Q 4.414164891736261 2.408951724137931 4.427957995184537 2.398606896551724 Q 4.457268340012123 2.379641379310345 4.457268340012123 2.333089655172414 L 4.457268340012123 2.2580896551724137 Q 4.432268340012123 2.305503448275862 4.377957995184537 2.319296551724138 Q 4.360716615874192 2.322744827586207 4.344337305529365 2.322744827586207 Q 4.2727855813914335 2.322744827586207 4.234854546908675 2.273606896551724 Q 4.199509719322468 2.229641379310345 4.199509719322468 2.1606758620689654 Q 4.199509719322468 2.0873999999999997 4.234854546908675 2.0408482758620687 Q 4.271923512425916 1.9891241379310345 4.3400269607017785 1.9891241379310345 M 4.73615564806708 2.030503448275862 Q 4.639603923929149 2.030503448275862 4.639603923929149 2.158951724137931 Q 4.639603923929149 2.219296551724138 4.6697763377222525 2.2537793103448274 Q 4.69563840668777 2.283951724137931 4.7370177170325976 2.284813793103448 Q 4.779259096342942 2.284813793103448 4.808569441170529 2.2529172413793104 Q 4.8396039239291495 2.219296551724138 4.8396039239291495 2.1606758620689654 Q 4.8396039239291495 2.072744827586207 4.784431510136046 2.041710344827586 Q 4.765465992894667 2.030503448275862 4.73615564806708 2.030503448275862 M 4.722362544618805 1.9891241379310345 Q 4.806845303239494 1.9891241379310345 4.8413280618601835 2.0537793103448276 L 4.8413280618601835 2.0175724137931033 Q 4.843052199791218 2.0072275862068967 4.849948751515356 2.001193103448276 Q 4.856845303239494 1.9951586206896552 4.866328061860184 1.9951586206896552 Q 4.875810820480873 1.9951586206896552 4.883569441170529 2.002055172413793 Q 4.891328061860184 2.008951724137931 4.891328061860184 2.020158620689655 L 4.891328061860184 2.3296413793103445 Q 4.891328061860184 2.3968827586206896 4.848224613584321 2.4296413793103446 Q 4.809431510136045 2.4606758620689653 4.73615564806708 2.4606758620689653 Q 4.67063840668777 2.4606758620689653 4.6378797859981145 2.4382620689655172 Q 4.6120177170325976 2.419296551724138 4.6120177170325976 2.4072275862068966 Q 4.6120177170325976 2.398606896551724 4.61762116530846 2.393003448275862 Q 4.623224613584322 2.3874 4.630552199791218 2.3874 Q 4.6378797859981145 2.3874 4.644776337722253 2.3921413793103445 Q 4.651672889446391 2.3968827586206896 4.66115564806708 2.401193103448276 Q 4.67063840668777 2.405503448275862 4.68012116530846 2.408951724137931 Q 4.7051211653084595 2.417572413793103 4.731414268756735 2.417572413793103 Q 4.757707372205012 2.417572413793103 4.7771039239291495 2.4132620689655173 Q 4.796500475653287 2.408951724137931 4.810293579101563 2.398606896551724 Q 4.8396039239291495 2.379641379310345 4.8396039239291495 2.333089655172414 L 4.8396039239291495 2.2580896551724137 Q 4.814603923929149 2.305503448275862 4.760293579101563 2.319296551724138 Q 4.743052199791218 2.322744827586207 4.726672889446391 2.322744827586207 Q 4.65512116530846 2.322744827586207 4.617190130825701 2.273606896551724 Q 4.581845303239494 2.229641379310345 4.581845303239494 2.1606758620689654 Q 4.581845303239494 2.0873999999999997 4.617190130825701 2.0408482758620687 Q 4.654259096342942 1.9891241379310345 4.722362544618805 1.9891241379310345 M 5.278836059570313 2.1494689655172414 Q 5.278836059570313 2.167572413793103 5.258146404397899 2.169296551724138 L 5.0219395078461755 2.169296551724138 Q 5.025387783708244 2.2572275862068967 5.0909050250875545 2.2830896551724136 Q 5.109008473363417 2.2891241379310343 5.132284335432383 2.2891241379310343 Q 5.1805601975013476 2.2891241379310343 5.230560197501347 2.2537793103448274 Q 5.246077438880659 2.245158620689655 5.256422266466865 2.255503448275862 Q 5.261594680259969 2.2606758620689655 5.259870542328934 2.265848275862069 Q 5.259870542328934 2.2779172413793103 5.253836059570314 2.2830896551724136 Q 5.206422266466865 2.330503448275862 5.128836059570314 2.3296413793103445 Q 5.0581464043979 2.3296413793103445 5.015042956122038 2.283951724137931 Q 4.966767094053072 2.2365379310344826 4.966767094053072 2.158951724137931 Q 4.966767094053072 2.0873999999999997 5.006422266466865 2.0408482758620687 Q 5.047801576811692 1.9891241379310345 5.12366364577721 1.9891241379310345 Q 5.199525714742727 1.9891241379310345 5.23918088715652 2.034813793103448 Q 5.277111921639279 2.0761931034482757 5.278836059570313 2.1494689655172414 M 5.227973990604796 2.133951724137931 Q 5.2253877837082445 2.0873999999999997 5.197801576811693 2.0572275862068965 Q 5.171939507846176 2.0296413793103447 5.12366364577721 2.0296413793103447 Q 5.082284335432382 2.0296413793103447 5.052973990604796 2.0606758620689654 Q 5.026249852673762 2.091710344827586 5.0236636457772095 2.133951724137931 L 5.227973990604796 2.133951724137931 M 5.412910514042297 2.0503310344827588 Q 5.43360016921471 1.9891241379310345 5.5034277554216064 1.9891241379310345 Q 5.516358789904365 1.9891241379310345 5.522824307145744 1.996451724137931 Q 5.529289824387124 2.0037793103448274 5.529289824387124 2.0119689655172412 Q 5.529289824387124 2.020158620689655 5.522824307145744 2.0274862068965516 Q 5.516358789904365 2.034813793103448 5.49911741059402 2.034813793103448 Q 5.481876031283676 2.034813793103448 5.464634651973331 2.041710344827586 Q 5.447393272662986 2.048606896551724 5.436186376111262 2.061537931034483 Q 5.412910514042297 2.0899862068965516 5.412910514042297 2.1365379310344825 L 5.412910514042297 2.298606896551724 Q 5.412910514042297 2.3106758620689654 5.404289824387124 2.316710344827586 Q 5.395669134731952 2.322744827586207 5.388772583007814 2.322744827586207 Q 5.381876031283675 2.322744827586207 5.37756568645609 2.321451724137931 Q 5.373255341628504 2.320158620689655 5.368944996800917 2.315848275862069 Q 5.361186376111262 2.3106758620689654 5.361186376111262 2.298606896551724 L 5.361186376111262 2.021020689655172 Q 5.361186376111262 2.009813793103448 5.368944996800917 2.0024862068965517 Q 5.3767036174905725 1.9951586206896552 5.388341548525055 1.9951586206896552 Q 5.399979479559538 1.9951586206896552 5.406444996800917 2.0024862068965517 Q 5.412910514042297 2.009813793103448 5.412910514042297 2.021020689655172 L 5.412910514042297 2.0503310344827588 M 5.787050339271284 1.880503448275862 Q 5.787050339271284 1.8624 5.804291718581629 1.8546413793103447 Q 5.809464132374733 1.8537793103448275 5.818946890995422 1.8529172413793102 Q 5.828429649616112 1.852055172413793 5.836619304788526 1.858951724137931 Q 5.84480895996094 1.865848275862069 5.84480895996094 1.880503448275862 L 5.84480895996094 2.294296551724138 Q 5.84480895996094 2.3149862068965517 5.826705511685077 2.3210206896551724 Q 5.821533097891974 2.322744827586207 5.8129124082368016 2.322744827586207 Q 5.804291718581629 2.322744827586207 5.795671028926456 2.315848275862069 Q 5.787050339271284 2.308951724137931 5.787050339271284 2.294296551724138 L 5.787050339271284 1.880503448275862 M 6.234022048424032 2.0572275862068965 Q 6.2754013587688595 1.9891241379310345 6.352987565665411 1.9891241379310345 Q 6.433159979458515 1.9891241379310345 6.459884117389549 2.056365517241379 Q 6.469366876010239 2.0813655172413794 6.469366876010239 2.1141241379310345 L 6.469366876010239 2.298606896551724 Q 6.469366876010239 2.3106758620689654 6.4611772208378255 2.316710344827586 Q 6.452987565665412 2.322744827586207 6.443504807044722 2.322744827586207 Q 6.433159979458515 2.322744827586207 6.424970324286101 2.3162793103448274 Q 6.416780669113687 2.3098137931034484 6.416780669113687 2.298606896551724 L 6.416780669113687 2.1106758620689656 Q 6.416780669113687 2.0710206896551724 6.394366876010239 2.048606896551724 Q 6.373677220837825 2.0296413793103447 6.34091860014817 2.0296413793103447 Q 6.2754013587688595 2.0296413793103447 6.252125496699894 2.083089655172414 Q 6.242642738079205 2.1029172413793105 6.242642738079205 2.1313655172413792 L 6.242642738079205 2.298606896551724 Q 6.242642738079205 2.3106758620689654 6.234453082906791 2.316710344827586 Q 6.226263427734377 2.322744827586207 6.216780669113687 2.322744827586207 Q 6.2064358415274805 2.322744827586207 6.198246186355067 2.3162793103448274 Q 6.190056531182653 2.3098137931034484 6.190056531182653 2.298606896551724 L 6.190056531182653 2.1106758620689656 Q 6.190056531182653 2.0710206896551724 6.168504807044722 2.048606896551724 Q 6.147815151872308 2.0296413793103447 6.121091013941274 2.0296413793103447 Q 6.094366876010239 2.0296413793103447 6.077125496699894 2.0356758620689654 Q 6.059884117389549 2.041710344827586 6.046091013941274 2.055503448275862 Q 6.018504807044722 2.083089655172414 6.016780669113688 2.1330896551724137 L 6.016780669113688 2.298606896551724 Q 6.016780669113688 2.3106758620689654 6.008159979458515 2.316710344827586 Q 5.999539289803343 2.322744827586207 5.990056531182653 2.322744827586207 Q 5.980573772561963 2.322744827586207 5.971953082906791 2.3162793103448274 Q 5.963332393251618 2.3098137931034484 5.963332393251618 2.298606896551724 L 5.963332393251618 2.020158620689655 Q 5.963332393251618 2.008951724137931 5.971953082906791 2.002055172413793 Q 5.980573772561963 1.9951586206896552 5.988332393251619 1.9951586206896552 Q 5.996091013941274 1.9951586206896552 6.00040135876886 1.9973137931034481 Q 6.004711703596446 1.9994689655172413 6.008159979458515 2.002055172413793 Q 6.016780669113688 2.008951724137931 6.016780669113688 2.0192965517241377 L 6.016780669113688 2.0503310344827588 Q 6.028849634630928 2.021020689655172 6.0607461863550665 2.004641379310345 Q 6.089194462217136 1.9891241379310345 6.127125496699894 1.9891241379310345 Q 6.1857461863550665 1.9891241379310345 6.216780669113687 2.026193103448276 Q 6.227125496699895 2.0399862068965517 6.234022048424032 2.0572275862068965 M 6.61806493298761 2.0511931034482758 Q 6.651685622642782 1.9891241379310345 6.735306312297955 1.9891241379310345 Q 6.804271829539334 1.9891241379310345 6.8404787260910584 2.041710344827586 Q 6.873237346780714 2.0899862068965516 6.873237346780714 2.1606758620689654 Q 6.873237346780714 2.2330896551724138 6.838754588160024 2.2787793103448277 Q 6.801685622642783 2.330503448275862 6.734444243332438 2.3296413793103445 Q 6.6775476916083 2.3296413793103445 6.641340795056576 2.295158620689655 Q 6.628409760573817 2.283951724137931 6.61806493298761 2.2684344827586207 L 6.61806493298761 2.423606896551724 Q 6.61806493298761 2.436537931034483 6.609444243332438 2.4425724137931035 Q 6.600823553677265 2.4486068965517243 6.592202864022092 2.4486068965517243 Q 6.581858036435886 2.4486068965517243 6.573237346780713 2.441710344827586 Q 6.5646166571255415 2.4348137931034484 6.5646166571255415 2.423606896551724 L 6.5646166571255415 2.020158620689655 Q 6.5646166571255415 2.0072275862068967 6.572375277815197 2.001193103448276 Q 6.580133898504852 1.9951586206896552 6.594789070918645 1.9951586206896552 Q 6.623237346780714 1.9951586206896552 6.61806493298761 2.0511931034482758 M 6.6223752778151965 2.108951724137931 Q 6.61806493298761 2.1330896551724137 6.61806493298761 2.1593827586206897 Q 6.61806493298761 2.1856758620689654 6.6240994157462305 2.208520689655172 Q 6.630133898504852 2.2313655172413793 6.642202864022093 2.2503310344827585 Q 6.669789070918645 2.2899862068965517 6.721513208849679 2.2891241379310343 Q 6.771513208849679 2.2891241379310343 6.797375277815196 2.2477448275862066 Q 6.817202864022093 2.2141241379310346 6.817202864022093 2.158951724137931 Q 6.817202864022093 2.0718827586206894 6.76806493298761 2.041710344827586 Q 6.749961484711748 2.030503448275862 6.72108217436692 2.0300724137931034 Q 6.692202864022093 2.0296413793103447 6.671944243332438 2.0399862068965517 Q 6.651685622642782 2.0503310344827588 6.639185622642782 2.0675724137931035 Q 6.626685622642783 2.0848137931034483 6.6223752778151965 2.108951724137931 M 7.109021206559809 2.123606896551724 Q 7.12712465483567 2.123606896551724 7.145228103111533 2.1244689655172415 L 7.145228103111533 2.0968827586206897 Q 7.145228103111533 2.0296413793103447 7.070228103111533 2.0296413793103447 Q 7.036607413456361 2.0296413793103447 7.02109017207705 2.0356758620689654 Q 6.993503965180499 2.0460206896551725 6.981434999663257 2.053348275862069 Q 6.969366034146016 2.0606758620689654 6.962469482421878 2.0606758620689654 Q 6.955572930697739 2.0606758620689654 6.949538447939119 2.055503448275862 Q 6.943503965180498 2.0503310344827588 6.943503965180498 2.041710344827586 Q 6.943503965180498 2.034813793103448 6.951262585870153 2.0279172413793103 Q 6.991779827249464 1.9891241379310345 7.07109017207705 1.9891241379310345 Q 7.162469482421877 1.9891241379310345 7.188331551387395 2.0503310344827588 Q 7.196952241042567 2.0718827586206894 7.196952241042567 2.1003310344827586 L 7.195228103111533 2.2994689655172413 Q 7.195228103111533 2.3106758620689654 7.187469482421878 2.316710344827586 Q 7.1797108617322225 2.322744827586207 7.1702281031115325 2.322744827586207 Q 7.160745344490843 2.322744827586207 7.152986723801188 2.3175724137931035 Q 7.145228103111533 2.3124 7.145228103111533 2.3003310344827583 L 7.145228103111533 2.2692965517241377 Q 7.124538447939119 2.314124137931034 7.07109017207705 2.3253310344827587 Q 7.0547108617322225 2.3296413793103445 7.0340212065598084 2.3296413793103445 Q 7.013331551387395 2.3296413793103445 6.99307293069774 2.3236068965517243 Q 6.972814310008085 2.3175724137931035 6.957297068628774 2.3046413793103446 Q 6.925400516904636 2.2779172413793103 6.925400516904636 2.2322275862068963 Q 6.925400516904636 2.123606896551724 7.109021206559809 2.123606896551724 M 7.145228103111533 2.1624 Q 7.131434999663257 2.1641241379310343 7.113331551387395 2.1641241379310343 Q 7.095228103111533 2.1641241379310343 7.076262585870153 2.164555172413793 Q 7.057297068628774 2.1649862068965517 7.04005568931843 2.1688655172413793 Q 7.022814310008084 2.172744827586207 7.009021206559809 2.180503448275862 Q 6.979710861732222 2.1960206896551724 6.977986723801188 2.2313655172413793 Q 6.977986723801188 2.258951724137931 7.000400516904636 2.2744689655172414 Q 7.017641896214981 2.2882620689655173 7.049538447939119 2.2891241379310343 Q 7.088331551387395 2.2891241379310343 7.116779827249464 2.2641241379310344 Q 7.142641896214981 2.2399862068965515 7.145228103111533 2.191710344827586 L 7.145228103111533 2.1624 M 7.274952224205283 2.158951724137931 Q 7.274952224205283 2.0873999999999997 7.315469465584593 2.0399862068965517 Q 7.359434982825973 1.9891241379310345 7.430124637998387 1.9891241379310345 Q 7.490469465584593 1.9891241379310345 7.522366017308731 2.0141241379310344 Q 7.531848775929421 2.021020689655172 7.531848775929421 2.030503448275862 Q 7.531848775929421 2.0399862068965517 7.5266763621363175 2.0455896551724138 Q 7.521503948343214 2.0511931034482758 7.514607396619076 2.0511931034482758 Q 7.507710844894938 2.0511931034482758 7.5042625690328695 2.048606896551724 Q 7.471503948343214 2.0296413793103447 7.43529705179149 2.030503448275862 Q 7.387883258688042 2.030503448275862 7.361159120757007 2.065848275862069 Q 7.330986706963904 2.102055172413793 7.330986706963904 2.158951724137931 Q 7.330986706963904 2.2115379310344827 7.352538431101835 2.2477448275862066 Q 7.378400500067352 2.2891241379310343 7.43529705179149 2.2891241379310343 Q 7.466331534550111 2.2891241379310343 7.511159120757007 2.2675724137931033 Q 7.523228086274249 2.2606758620689655 7.531848775929421 2.271020689655172 Q 7.537021189722524 2.276193103448276 7.537021189722524 2.2852448275862067 Q 7.537021189722524 2.294296551724138 7.5258142931708 2.303348275862069 Q 7.514607396619076 2.3124 7.499090155239766 2.3175724137931035 Q 7.461159120757007 2.330503448275862 7.4258142931708 2.3300724137931033 Q 7.3904694655845935 2.3296413793103445 7.362021189722524 2.316710344827586 Q 7.333572913860455 2.3037793103448276 7.314607396619076 2.2787793103448277 Q 7.274952224205283 2.2313655172413793 7.274952224205283 2.158951724137931 M 7.790042640422956 2.3037793103448276 Q 7.790042640422956 2.3296413793103445 7.728835743871231 2.3296413793103445 Q 7.683146088698818 2.3296413793103445 7.664180571457439 2.3046413793103446 Q 7.643490916285025 2.2779172413793103 7.641766778353991 2.216710344827586 L 7.641766778353991 2.0356758620689654 L 7.603835743871231 2.0356758620689654 Q 7.593490916285025 2.0356758620689654 7.587456433526404 2.029210344827586 Q 7.581421950767783 2.022744827586207 7.581421950767783 2.015848275862069 Q 7.581421950767783 2.008951724137931 7.586594364560887 2.002055172413793 Q 7.59176677835399 1.9951586206896552 7.603835743871231 1.9951586206896552 L 7.6452150542160595 1.9951586206896552 L 7.648663330078128 1.902055172413793 Q 7.650387468009162 1.8917103448275863 7.6581460886988175 1.886106896551724 Q 7.665904709388473 1.880503448275862 7.674525399043645 1.880503448275862 Q 7.683146088698818 1.880503448275862 7.689180571457438 1.8856758620689655 Q 7.695215054216059 1.8908482758620688 7.695215054216059 1.902055172413793 L 7.695215054216059 1.9951586206896552 L 7.754697812836749 1.9951586206896552 Q 7.765042640422956 1.9951586206896552 7.770646088698818 2.002055172413793 Q 7.77624953697468 2.008951724137931 7.77624953697468 2.015848275862069 Q 7.77624953697468 2.0244689655172414 7.770646088698818 2.0300724137931034 Q 7.765042640422956 2.0356758620689654 7.754697812836749 2.0356758620689654 L 7.695215054216059 2.0356758620689654 L 7.695215054216059 2.1882620689655172 Q 7.695215054216059 2.252055172413793 7.699525399043646 2.26541724137931 Q 7.703835743871232 2.2787793103448277 7.713318502491921 2.283951724137931 Q 7.722801261112611 2.2891241379310343 7.736594364560887 2.2891241379310343 L 7.7702150542160595 2.286537931034483 Q 7.779697812836749 2.286537931034483 7.784870226629852 2.292572413793103 Q 7.790042640422956 2.298606896551724 7.790042640422956 2.3037793103448276 M 7.858575965618269 2.2908482758620687 Q 7.858575965618269 2.284813793103448 7.860731138032062 2.279210344827586 Q 7.862886310445854 2.273606896551724 7.868058724238958 2.2688655172413794 Q 7.873231138032062 2.2641241379310344 7.879696655273441 2.2615379310344825 Q 7.88616217251482 2.258951724137931 7.8947828621699925 2.258951724137931 Q 7.903403551825165 2.258951724137931 7.909438034583786 2.2615379310344825 Q 7.9154725173424065 2.2641241379310344 7.9202138966527516 2.2688655172413794 Q 7.924955275963097 2.273606896551724 7.927110448376889 2.279210344827586 Q 7.929265620790682 2.284813793103448 7.929265620790682 2.2908482758620687 Q 7.929265620790682 2.2968827586206895 7.927110448376889 2.30291724137931 Q 7.924955275963097 2.308951724137931 7.9202138966527516 2.3132620689655172 Q 7.9154725173424065 2.3175724137931035 7.909438034583786 2.320158620689655 Q 7.903403551825165 2.322744827586207 7.8947828621699925 2.322744827586207 Q 7.88616217251482 2.322744827586207 7.879696655273441 2.320158620689655 Q 7.873231138032062 2.3175724137931035 7.868058724238958 2.3132620689655172 Q 7.862886310445854 2.308951724137931 7.860731138032062 2.30291724137931 Q 7.858575965618269 2.2968827586206895 7.858575965618269 2.2908482758620687" fill="#173054" fill-rule="nonzero"></path></g></g><defs><clipPath id="SvgjsClipPath69694"><path d=" M -5.1899165349697505 -1.2747429134207633 h 4.78991653496975 v 4.872230654427733 h -4.78991653496975 Z"></path></clipPath><clipPath id="SvgjsClipPath6969277053d13-87a4-4f3b-abe1-3af3ebd5bbe6"><path d=" M -5.1899165349697505 -1.2747429134207633 L -0.40000000000000036 -1.2747429134207633 L -0.40000000000000036 3.59748774100697 L -5.1899165349697505 3.59748774100697 Z"></path></clipPath></defs></svg>